STARTFONT 2.1
COMMENT
COMMENT Converted from OpenType font "Q:\font stuff\winfont\EUROCAPS.TTF" by "otf2bdf 3.0".
COMMENT
FONT -FreeType-Euro Caps-Medium-R-Normal--44-440-72-72-P-192-ISO10646-1
SIZE 44 72 72
FONTBOUNDINGBOX 60 47 -5 -11
STARTPROPERTIES 19
FOUNDRY "FreeType"
FAMILY_NAME "Euro Caps"
WEIGHT_NAME "Medium"
SLANT "R"
SETWIDTH_NAME "Normal"
ADD_STYLE_NAME ""
PIXEL_SIZE 44
POINT_SIZE 440
RESOLUTION_X 72
RESOLUTION_Y 72
SPACING "P"
AVERAGE_WIDTH 192
CHARSET_REGISTRY "ISO10646"
CHARSET_ENCODING "1"
FONT_ASCENT 39
FONT_DESCENT 13
COPYRIGHT "©2010"
_OTF_FONTFILE "Q:\font stuff\winfont\EUROCAPS.TTF"
_OTF_PSNAME "EuroCaps"
ENDPROPERTIES
CHARS 259
STARTCHAR 0020
ENCODING 32
SWIDTH 295 0
DWIDTH 13 0
BBX 0 0 0 0
BITMAP
ENDCHAR
STARTCHAR 0021
ENCODING 33
SWIDTH 250 0
DWIDTH 11 0
BBX 4 29 4 0
BITMAP
F0
F0
F0
F0
F0
F0
F0
F0
F0
F0
F0
F0
F0
F0
F0
F0
F0
F0
F0
F0
00
00
00
00
F0
F0
F0
F0
F0
ENDCHAR
STARTCHAR 0022
ENCODING 34
SWIDTH 318 0
DWIDTH 14 0
BBX 10 11 2 18
BITMAP
E1C0
E1C0
E1C0
E1C0
E1C0
E1C0
E1C0
61C0
61C0
61C0
61C0
ENDCHAR
STARTCHAR 0023
ENCODING 35
SWIDTH 522 0
DWIDTH 23 0
BBX 19 25 2 0
BITMAP
038300
038700
030700
030700
030700
070600
070600
070600
7FFFE0
7FFFE0
060E00
0E0C00
0E0C00
0E0C00
0E1C00
FFFFC0
FFFFC0
1C1C00
1C1800
1C1800
1C3800
183800
183800
383800
383000
ENDCHAR
STARTCHAR 0024
ENCODING 36
SWIDTH 568 0
DWIDTH 25 0
BBX 21 31 2 -3
BITMAP
007000
007000
03FC00
3FFFE0
7FFFF0
7C71F0
F07078
E07078
E07078
E07078
E07000
E07000
F07000
7C7000
7FFFC0
3FFFE0
07FFF0
007078
007038
007038
E07038
E07038
E07038
E07078
F070F8
FFFFF0
7FFFE0
1FFFC0
007000
007000
007000
ENDCHAR
STARTCHAR 0025
ENCODING 37
SWIDTH 886 0
DWIDTH 39 0
BBX 36 26 1 0
BITMAP
000000E000
1FF801C000
7FFE01C000
FFFF038000
F00F030000
E007070000
E0070E0000
E0070E0000
E0071C0000
E0071C0000
E007380000
E00738FF80
F00F73FFE0
FFFF77FFF0
7FFEE780F0
1FF8E70070
0001C70070
0001870070
0003870070
0003070070
0007070070
000E070070
000E0780F0
001C07FFF0
001C03FFE0
003800FF80
ENDCHAR
STARTCHAR 0026
ENCODING 38
SWIDTH 636 0
DWIDTH 28 0
BBX 25 25 2 -1
BITMAP
00FF0000
07FFC000
07FFC000
0F03E000
0E01E000
0E01E000
0E01E000
0E01E000
0F000000
07800000
07C00000
3FE00000
7FF80000
F07C0000
E03E3800
E01F3800
E00FB800
E003F800
E001F800
E000F800
E0007C00
7000FF00
7FFFFF80
3FFFE780
0FFF8300
ENDCHAR
STARTCHAR 0027
ENCODING 39
SWIDTH 159 0
DWIDTH 7 0
BBX 3 11 2 18
BITMAP
E0
E0
E0
E0
E0
E0
E0
60
60
60
60
ENDCHAR
STARTCHAR 0028
ENCODING 40
SWIDTH 318 0
DWIDTH 14 0
BBX 9 41 3 -8
BITMAP
0780
1F80
3F80
7F80
7800
F800
F000
F000
F000
F000
F000
F000
F000
F000
F000
F000
F000
F000
F000
F000
F000
F000
F000
F000
F000
F000
F000
F000
F000
F000
F000
F000
F000
F000
F000
F800
7800
7E00
3F80
1F80
0F80
ENDCHAR
STARTCHAR 0029
ENCODING 41
SWIDTH 318 0
DWIDTH 14 0
BBX 9 41 2 -8
BITMAP
F000
FC00
FE00
FF00
0F00
0F80
0780
0780
0780
0780
0780
0780
0780
0780
0780
0780
0780
0780
0780
0780
0780
0780
0780
0780
0780
0780
0780
0780
0780
0780
0780
0780
0780
0780
0780
0F00
0F00
3F00
FE00
FC00
F000
ENDCHAR
STARTCHAR 002A
ENCODING 42
SWIDTH 477 0
DWIDTH 21 0
BBX 19 17 2 12
BITMAP
00E000
00E000
00E000
00E000
00E000
70E1C0
FEEFE0
3FFF80
0FFE00
01F000
03F800
03B800
071C00
0E0E00
1E0E00
1C0700
080000
ENDCHAR
STARTCHAR 002B
ENCODING 43
SWIDTH 522 0
DWIDTH 23 0
BBX 21 20 1 2
BITMAP
007000
007000
007000
007000
007000
007000
007000
007000
FFFFF8
FFFFF8
FFFFF8
007000
007000
007000
007000
007000
007000
007000
007000
007000
ENDCHAR
STARTCHAR 002C
ENCODING 44
SWIDTH 227 0
DWIDTH 10 0
BBX 4 10 3 -5
BITMAP
F0
F0
F0
F0
F0
30
30
30
F0
E0
ENDCHAR
STARTCHAR 002D
ENCODING 45
SWIDTH 250 0
DWIDTH 11 0
BBX 11 3 0 11
BITMAP
FFE0
FFE0
FFE0
ENDCHAR
STARTCHAR 002E
ENCODING 46
SWIDTH 204 0
DWIDTH 9 0
BBX 4 5 3 0
BITMAP
F0
F0
F0
F0
F0
ENDCHAR
STARTCHAR 002F
ENCODING 47
SWIDTH 590 0
DWIDTH 26 0
BBX 24 33 1 -4
BITMAP
000003
000007
00000E
00000C
00001C
000038
000070
000070
0000E0
0001C0
0001C0
000380
000700
000700
000E00
001C00
001800
003800
007000
006000
00E000
01C000
038000
038000
070000
0E0000
0E0000
1C0000
380000
380000
700000
E00000
C00000
ENDCHAR
STARTCHAR 0030
ENCODING 48
SWIDTH 568 0
DWIDTH 25 0
BBX 20 25 2 0
BITMAP
0FFF00
3FFFC0
7FFFE0
7801E0
F000F0
E00070
E00070
E00070
E00070
E00070
E00070
E00070
E00070
E00070
E00070
E00070
E00070
E00070
E00070
E00070
F000F0
7801E0
7FFFE0
3FFFC0
0FFF00
ENDCHAR
STARTCHAR 0031
ENCODING 49
SWIDTH 568 0
DWIDTH 25 0
BBX 12 26 6 0
BITMAP
01F0
03F0
07F0
0FF0
1F70
3E70
7C70
F870
7070
2070
0070
0070
0070
0070
0070
0070
0070
0070
0070
0070
0070
0070
0070
0070
0070
0070
ENDCHAR
STARTCHAR 0032
ENCODING 50
SWIDTH 522 0
DWIDTH 23 0
BBX 19 25 2 0
BITMAP
0FFE00
3FFF80
7FFFC0
7803C0
E001E0
E000E0
E000E0
E000E0
E000E0
0000E0
0000E0
0001E0
0007C0
03FF80
3FFF00
7FF800
780000
F00000
E00000
E00000
E00000
E00000
FFFFE0
FFFFE0
FFFFE0
ENDCHAR
STARTCHAR 0033
ENCODING 51
SWIDTH 545 0
DWIDTH 24 0
BBX 19 25 2 0
BITMAP
0FFE00
1FFF80
3FFFC0
7801E0
7000E0
7000E0
7000E0
7000E0
0000E0
0001C0
01FFC0
01FF00
01FFC0
0001C0
0000E0
0000E0
E000E0
E000E0
E000E0
E000E0
E000E0
F003C0
7FFFC0
3FFF80
0FFE00
ENDCHAR
STARTCHAR 0034
ENCODING 52
SWIDTH 545 0
DWIDTH 24 0
BBX 21 26 1 0
BITMAP
0007C0
000FC0
001FC0
001FC0
003DC0
0079C0
00F1C0
01E1C0
03C1C0
03C1C0
0781C0
0F01C0
1E01C0
3C01C0
7C01C0
7801C0
F001C0
FFFFF8
FFFFF8
FFFFF8
0001C0
0001C0
0001C0
0001C0
0001C0
0001C0
ENDCHAR
STARTCHAR 0035
ENCODING 53
SWIDTH 545 0
DWIDTH 24 0
BBX 18 26 3 0
BITMAP
FFFF80
FFFF80
FFFF80
E00000
E00000
E00000
E00000
E00000
E7FC00
FFFF00
FFFF80
F80780
E003C0
E001C0
0001C0
0001C0
0001C0
0001C0
E001C0
E001C0
E001C0
E003C0
F00780
7FFF80
3FFF00
0FFC00
ENDCHAR
STARTCHAR 0036
ENCODING 54
SWIDTH 545 0
DWIDTH 24 0
BBX 20 25 2 0
BITMAP
0FFF00
3FFFC0
7FFFC0
7801E0
F000E0
F000E0
F00000
F00000
F00000
F3FF00
FFFFC0
FFFFE0
F801E0
E00070
E00070
E00070
E00070
E00070
E00070
E00070
F00070
7801E0
7FFFE0
3FFFC0
07FF00
ENDCHAR
STARTCHAR 0037
ENCODING 55
SWIDTH 522 0
DWIDTH 23 0
BBX 19 26 2 0
BITMAP
FFFFE0
FFFFE0
FFFFE0
0000E0
0001E0
0003C0
0003C0
000780
000780
000F00
001E00
001E00
003C00
003C00
007800
007800
00F000
01E000
01E000
03C000
03C000
078000
078000
0F0000
1F0000
1E0000
ENDCHAR
STARTCHAR 0038
ENCODING 56
SWIDTH 545 0
DWIDTH 24 0
BBX 20 25 2 0
BITMAP
0FFF00
3FFFC0
3FFFC0
7801E0
7000E0
7000E0
7000E0
7000E0
7000E0
7801E0
3FFFC0
1FFF80
3FFFC0
7801E0
E00070
E00070
E00070
E00070
E00070
E00070
E000F0
F801F0
7FFFE0
3FFFC0
0FFF00
ENDCHAR
STARTCHAR 0039
ENCODING 57
SWIDTH 545 0
DWIDTH 24 0
BBX 19 25 2 0
BITMAP
0FFE00
3FFF80
7FFFC0
7003C0
E001E0
E000E0
E000E0
E000E0
E000E0
E000E0
E000E0
F003E0
7FFFE0
3FFFE0
0FFCE0
0000E0
0000E0
0000E0
E000E0
E000E0
E001E0
F003C0
7FFFC0
7FFF80
0FFE00
ENDCHAR
STARTCHAR 003A
ENCODING 58
SWIDTH 204 0
DWIDTH 9 0
BBX 4 23 3 0
BITMAP
F0
F0
F0
F0
F0
00
00
00
00
00
00
00
00
00
00
00
00
00
F0
F0
F0
F0
F0
ENDCHAR
STARTCHAR 003B
ENCODING 59
SWIDTH 227 0
DWIDTH 10 0
BBX 4 28 3 -5
BITMAP
F0
F0
F0
F0
F0
00
00
00
00
00
00
00
00
00
00
00
00
00
F0
F0
F0
F0
F0
30
30
30
F0
E0
ENDCHAR
STARTCHAR 003C
ENCODING 60
SWIDTH 500 0
DWIDTH 22 0
BBX 20 21 1 1
BITMAP
000010
000070
0001F0
0007F0
003FC0
00FF00
03F800
0FE000
7F8000
FE0000
F00000
FC0000
7F0000
1FC000
07F800
01FE00
003F80
000FE0
0003F0
0000F0
000030
ENDCHAR
STARTCHAR 003D
ENCODING 61
SWIDTH 522 0
DWIDTH 23 0
BBX 21 10 1 7
BITMAP
FFFFF8
FFFFF8
FFFFF8
000000
000000
000000
000000
FFFFF8
FFFFF8
FFFFF8
ENDCHAR
STARTCHAR 003E
ENCODING 62
SWIDTH 500 0
DWIDTH 22 0
BBX 20 21 1 1
BITMAP
800000
E00000
F80000
FE0000
3FC000
0FF000
01FC00
007F00
001FE0
0007F0
0000F0
0003F0
000FE0
003F80
01FE00
07F800
1FC000
7F0000
FC0000
F00000
C00000
ENDCHAR
STARTCHAR 003F
ENCODING 63
SWIDTH 477 0
DWIDTH 21 0
BBX 15 29 3 0
BITMAP
1FF0
7FFC
7FFC
F01E
E00E
E00E
E00E
000E
000E
000E
001E
007C
01FC
03F0
0780
0700
0700
0700
0700
0700
0000
0000
0000
0000
0F00
0F00
0F00
0F00
0F00
ENDCHAR
STARTCHAR 0040
ENCODING 64
SWIDTH 727 0
DWIDTH 32 0
BBX 29 29 1 0
BITMAP
00FFFE00
0FFFFFC0
3E0001E0
30000070
60000030
60000030
603F9C18
C07FDC18
C0F07C18
C1E03C18
C1C01C18
C1C01C18
C1C01C18
C1C01C18
C1C01C18
C1C01C18
C1C01C18
C1C01C18
C1C01C18
C0E03C30
C0F06E30
C07FEFF0
603F87C0
60000000
70000000
38000000
1E000380
0FFFFF80
00FFFE00
ENDCHAR
STARTCHAR 0041
ENCODING 65
SWIDTH 545 0
DWIDTH 24 0
BBX 23 25 1 0
BITMAP
007C00
00FC00
00FC00
00FE00
01EE00
01CE00
03CF00
03C700
038780
078780
078380
0703C0
0F01C0
0E01E0
1E01E0
1E00E0
1C00F0
3FFFF0
3FFFF8
3FFFF8
780038
70003C
F0003C
F0001C
E0001E
ENDCHAR
STARTCHAR 0042
ENCODING 66
SWIDTH 568 0
DWIDTH 25 0
BBX 20 25 3 0
BITMAP
FFFF00
FFFFC0
FFFFC0
E001E0
E000E0
E000E0
E000E0
E000E0
E000E0
E000E0
E001C0
FFFFC0
FFFF80
FFFFE0
E000E0
E00070
E00070
E00070
E00070
E00070
E00070
E000F0
FFFFE0
FFFFC0
FFFF00
ENDCHAR
STARTCHAR 0043
ENCODING 67
SWIDTH 568 0
DWIDTH 25 0
BBX 21 25 2 0
BITMAP
07FF80
1FFFE0
3FFFF0
7C0070
F80038
F00038
F00038
F00038
F00000
F00000
F00000
F00000
F00000
F00000
F00000
F00000
F00038
F00038
F00038
F80038
F80038
7C0078
7FFFF0
3FFFE0
0FFF80
ENDCHAR
STARTCHAR 0044
ENCODING 68
SWIDTH 590 0
DWIDTH 26 0
BBX 21 25 3 0
BITMAP
FFFF00
FFFFC0
FFFFE0
E000F0
E00070
E00030
E00038
E00038
E00038
E00038
E00038
E00038
E00038
E00038
E00038
E00038
E00038
E00038
E00038
E00078
E00070
E001F0
FFFFE0
FFFFC0
FFFF00
ENDCHAR
STARTCHAR 0045
ENCODING 69
SWIDTH 500 0
DWIDTH 22 0
BBX 17 25 3 0
BITMAP
FFFF80
FFFF80
FFFF80
E00000
E00000
E00000
E00000
E00000
E00000
E00000
E00000
FFFF00
FFFF00
FFFF00
E00000
E00000
E00000
E00000
E00000
E00000
E00000
E00000
FFFF80
FFFF80
FFFF80
ENDCHAR
STARTCHAR 0046
ENCODING 70
SWIDTH 477 0
DWIDTH 21 0
BBX 16 25 3 0
BITMAP
FFFF
FFFF
FFFF
E000
E000
E000
E000
E000
E000
E000
E000
FFFF
FFFF
FFFF
E000
E000
E000
E000
E000
E000
E000
E000
E000
E000
E000
ENDCHAR
STARTCHAR 0047
ENCODING 71
SWIDTH 568 0
DWIDTH 25 0
BBX 21 25 2 0
BITMAP
07FFC0
1FFFF0
3FFFF0
780078
700038
E00038
E00038
E00038
E00000
E00000
E00000
E00000
E03FF8
E03FF8
E03FF8
E00038
E00038
E00038
E00038
E00038
F00078
7800F0
7FFFF0
3FFFE0
07FF80
ENDCHAR
STARTCHAR 0048
ENCODING 72
SWIDTH 613 0
DWIDTH 27 0
BBX 21 25 3 0
BITMAP
E00038
E00038
E00038
E00038
E00038
E00038
E00038
E00038
E00038
E00038
E00038
FFFFF8
FFFFF8
FFFFF8
E00038
E00038
E00038
E00038
E00038
E00038
E00038
E00038
E00038
E00038
E00038
ENDCHAR
STARTCHAR 0049
ENCODING 73
SWIDTH 227 0
DWIDTH 10 0
BBX 3 25 3 0
BITMAP
E0
E0
E0
E0
E0
E0
E0
E0
E0
E0
E0
E0
E0
E0
E0
E0
E0
E0
E0
E0
E0
E0
E0
E0
E0
ENDCHAR
STARTCHAR 004A
ENCODING 74
SWIDTH 454 0
DWIDTH 20 0
BBX 16 25 1 0
BITMAP
0007
0007
0007
0007
0007
0007
0007
0007
0007
0007
0007
0007
0007
0007
0007
E007
E007
E007
E007
E007
E007
F00F
FFFE
7FFC
1FF0
ENDCHAR
STARTCHAR 004B
ENCODING 75
SWIDTH 568 0
DWIDTH 25 0
BBX 21 25 3 0
BITMAP
E001F0
E003E0
E007C0
E00F80
E01F00
E03E00
E07C00
E0F800
E1F000
E3E000
E7C000
FF8000
FF8000
FFC000
E3E000
E1F000
E0F800
E07C00
E03E00
E01F00
E00F80
E007C0
E003E0
E001F0
E000F8
ENDCHAR
STARTCHAR 004C
ENCODING 76
SWIDTH 477 0
DWIDTH 21 0
BBX 16 25 3 0
BITMAP
E000
E000
E000
E000
E000
E000
E000
E000
E000
E000
E000
E000
E000
E000
E000
E000
E000
E000
E000
E000
E000
E000
FFFF
FFFF
FFFF
ENDCHAR
STARTCHAR 004D
ENCODING 77
SWIDTH 772 0
DWIDTH 34 0
BBX 28 25 3 0
BITMAP
FC0003F0
FC0003F0
FC0003F0
FE0007F0
EE000770
EF000F70
EF000F70
E7000E70
E7801E70
E3801C70
E3C03C70
E1C03870
E1C03870
E1E07870
E0E07070
E0F0F070
E070E070
E070E070
E039C070
E039C070
E03FC070
E01F8070
E01F8070
E00F0070
E00F0070
ENDCHAR
STARTCHAR 004E
ENCODING 78
SWIDTH 636 0
DWIDTH 28 0
BBX 22 25 3 0
BITMAP
F8001C
FC001C
FE001C
FE001C
EF001C
E7801C
E7801C
E3C01C
E3C01C
E1E01C
E0F01C
E0F01C
E0781C
E03C1C
E03C1C
E01E1C
E00F1C
E00F1C
E0079C
E0079C
E003DC
E001FC
E001FC
E000FC
E0007C
ENDCHAR
STARTCHAR 004F
ENCODING 79
SWIDTH 590 0
DWIDTH 26 0
BBX 22 25 2 0
BITMAP
07FF80
1FFFE0
3FFFF0
780078
F00038
E0001C
E0001C
E0001C
E0001C
E0001C
E0001C
E0001C
E0001C
E0001C
E0001C
E0001C
E0001C
E0001C
E0001C
E0001C
70003C
780078
7FFFF8
3FFFF0
0FFFC0
ENDCHAR
STARTCHAR 0050
ENCODING 80
SWIDTH 522 0
DWIDTH 23 0
BBX 19 25 3 0
BITMAP
FFFF00
FFFF80
FFFFC0
E001C0
E000E0
E000E0
E000E0
E000E0
E000E0
E000E0
E000E0
E001C0
FFFFC0
FFFF80
FFFF00
E00000
E00000
E00000
E00000
E00000
E00000
E00000
E00000
E00000
E00000
ENDCHAR
STARTCHAR 0051
ENCODING 81
SWIDTH 590 0
DWIDTH 26 0
BBX 24 25 2 0
BITMAP
07FF80
1FFFE0
3FFFF0
780078
F00038
E0001C
E0001C
E0001C
E0001C
E0001C
E0001C
E0001C
E0001C
E0001C
E01C1C
E01E1C
E01F9C
E007FC
E001FC
E000FC
F0003E
78007F
7FFFF7
3FFFE2
0FFF80
ENDCHAR
STARTCHAR 0052
ENCODING 82
SWIDTH 590 0
DWIDTH 26 0
BBX 20 25 3 0
BITMAP
FFFF00
FFFFC0
FFFFE0
E000F0
E00070
E00070
E00070
E00070
E00070
E00070
E000F0
E001F0
FFFFE0
FFFF00
FFFFE0
E001E0
E000F0
E000F0
E000F0
E000F0
E000F0
E000F0
E000F0
E000F0
E000F0
ENDCHAR
STARTCHAR 0053
ENCODING 83
SWIDTH 522 0
DWIDTH 23 0
BBX 19 26 2 -1
BITMAP
1FFE00
7FFF80
7FFF80
F003C0
E001C0
E001C0
E001C0
E001C0
E00000
E00000
F00000
7FFE00
3FFF80
1FFFC0
0001E0
0000E0
0000E0
E000E0
E000E0
E000E0
E000E0
E000E0
F003C0
7FFFC0
7FFF80
1FFF00
ENDCHAR
STARTCHAR 0054
ENCODING 84
SWIDTH 500 0
DWIDTH 22 0
BBX 19 25 1 0
BITMAP
FFFFE0
FFFFE0
FFFFE0
00E000
00E000
00E000
00E000
00E000
00E000
00E000
00E000
00E000
00E000
00E000
00E000
00E000
00E000
00E000
00E000
00E000
00E000
00E000
00E000
00E000
00E000
ENDCHAR
STARTCHAR 0055
ENCODING 85
SWIDTH 590 0
DWIDTH 26 0
BBX 20 25 3 0
BITMAP
E00070
E00070
E00070
E00070
E00070
E00070
E00070
E00070
E00070
E00070
E00070
E00070
E00070
E00070
E00070
E00070
E00070
E00070
E00070
E00070
E00070
7800E0
7FFFE0
3FFFC0
0FFF00
ENDCHAR
STARTCHAR 0056
ENCODING 86
SWIDTH 545 0
DWIDTH 24 0
BBX 23 25 0 0
BITMAP
F0001E
78001E
78001C
38003C
3C003C
3C0038
1C0078
1E0078
1E00F0
0E00F0
0F00E0
0701E0
0781E0
0781C0
0383C0
03C3C0
03C380
01C780
01E700
00EF00
00FF00
00FE00
007E00
007E00
007C00
ENDCHAR
STARTCHAR 0057
ENCODING 87
SWIDTH 886 0
DWIDTH 39 0
BBX 38 25 0 0
BITMAP
F0007C001C
70007C003C
7800FC003C
7800FE0038
3800EE0078
3C01EE0078
3C01CF0070
1C01CF00F0
1C03C700F0
1E038700E0
0E038780E0
0E038381E0
0F078381C0
070703C1C0
070701C3C0
078F01C380
038E01E380
038E01E780
03DE00E700
03DC00E700
01DC00FF00
01DC007E00
01FC007E00
00F8007E00
00F8007C00
ENDCHAR
STARTCHAR 0058
ENCODING 88
SWIDTH 545 0
DWIDTH 24 0
BBX 23 25 0 0
BITMAP
78001E
3C003C
3E0078
1E0078
0F00F0
0781E0
0783E0
03C3C0
01E780
01FF00
00FF00
007E00
007E00
00FF00
00FF00
01E780
03C3C0
07C3C0
0781E0
0F00F0
1E00F8
1E0078
3C003C
78001E
F8001E
ENDCHAR
STARTCHAR 0059
ENCODING 89
SWIDTH 522 0
DWIDTH 23 0
BBX 22 25 1 0
BITMAP
F0007C
F00078
7800F0
3C01F0
3C01E0
1E03C0
0F0380
0F0780
078F00
03CE00
03DE00
01FC00
00F800
00F800
007000
007000
007000
007000
007000
007000
007000
007000
007000
007000
007000
ENDCHAR
STARTCHAR 005A
ENCODING 90
SWIDTH 522 0
DWIDTH 23 0
BBX 21 25 1 0
BITMAP
7FFFF0
7FFFF0
7FFFF0
0000F0
0001E0
0003C0
000780
000F80
000F00
001E00
003C00
007800
00F800
01F000
01E000
03C000
078000
0F0000
1F0000
3E0000
3C0000
780000
FFFFF8
FFFFF8
FFFFF8
ENDCHAR
STARTCHAR 005B
ENCODING 91
SWIDTH 318 0
DWIDTH 14 0
BBX 8 40 4 -8
BITMAP
FF
FF
FF
F0
F0
F0
F0
F0
F0
F0
F0
F0
F0
F0
F0
F0
F0
F0
F0
F0
F0
F0
F0
F0
F0
F0
F0
F0
F0
F0
F0
F0
F0
F0
F0
F0
F0
FF
FF
FF
ENDCHAR
STARTCHAR 005C
ENCODING 92
SWIDTH 590 0
DWIDTH 26 0
BBX 24 33 1 -4
BITMAP
C00000
E00000
700000
380000
380000
1C0000
0E0000
0E0000
070000
038000
038000
01C000
00E000
006000
007000
003800
001800
001C00
000E00
000600
000700
000380
0001C0
0001C0
0000E0
000070
000070
000038
00001C
00000C
00000E
000007
000003
ENDCHAR
STARTCHAR 005D
ENCODING 93
SWIDTH 318 0
DWIDTH 14 0
BBX 9 40 2 -8
BITMAP
FF80
FF80
FF80
0780
0780
0780
0780
0780
0780
0780
0780
0780
0780
0780
0780
0780
0780
0780
0780
0780
0780
0780
0780
0780
0780
0780
0780
0780
0780
0780
0780
0780
0780
0780
0780
0780
0780
FF80
FF80
FF80
ENDCHAR
STARTCHAR 005E
ENCODING 94
SWIDTH 500 0
DWIDTH 22 0
BBX 18 13 2 16
BITMAP
01E000
03F000
03F000
073800
0F3C00
0E1C00
1E1E00
1C0E00
380700
780780
700380
F003C0
E001C0
ENDCHAR
STARTCHAR 005F
ENCODING 95
SWIDTH 500 0
DWIDTH 22 0
BBX 22 2 0 -5
BITMAP
FFFFFC
FFFFFC
ENDCHAR
STARTCHAR 0060
ENCODING 96
SWIDTH 500 0
DWIDTH 22 0
BBX 8 7 6 29
BITMAP
40
E0
F8
7C
1E
07
02
ENDCHAR
STARTCHAR 0061
ENCODING 97
SWIDTH 545 0
DWIDTH 24 0
BBX 23 25 1 0
BITMAP
007C00
00FC00
00FC00
00FE00
01EE00
01CE00
03CF00
03C700
038780
078780
078380
0703C0
0F01C0
0E01E0
1E01E0
1E00E0
1C00F0
3FFFF0
3FFFF8
3FFFF8
780038
70003C
F0003C
F0001C
E0001E
ENDCHAR
STARTCHAR 0062
ENCODING 98
SWIDTH 568 0
DWIDTH 25 0
BBX 20 25 3 0
BITMAP
FFFF00
FFFF80
FFFFC0
E001E0
E000E0
E000E0
E000E0
E000E0
E000E0
E000E0
E001C0
FFFFC0
FFFF80
FFFFE0
E000E0
E00070
E00070
E00070
E00070
E00070
E00070
E000E0
FFFFE0
FFFFC0
FFFF00
ENDCHAR
STARTCHAR 0063
ENCODING 99
SWIDTH 568 0
DWIDTH 25 0
BBX 21 25 2 0
BITMAP
07FF80
1FFFE0
3FFFF0
7C00F0
F80078
F00078
F00038
F00038
F00000
F00000
F00000
F00000
F00000
F00000
F00000
F00000
F00038
F00038
F00038
F80038
780038
7C0078
3FFFF0
1FFFE0
07FF80
ENDCHAR
STARTCHAR 0064
ENCODING 100
SWIDTH 613 0
DWIDTH 27 0
BBX 21 25 3 0
BITMAP
FFFF00
FFFFC0
FFFFE0
E001F0
E00070
E00070
E00038
E00038
E00038
E00038
E00038
E00038
E00038
E00038
E00038
E00038
E00038
E00038
E00038
E00070
E00070
E001F0
FFFFE0
FFFFC0
FFFF00
ENDCHAR
STARTCHAR 0065
ENCODING 101
SWIDTH 500 0
DWIDTH 22 0
BBX 17 25 3 0
BITMAP
FFFF80
FFFF80
FFFF80
E00000
E00000
E00000
E00000
E00000
E00000
E00000
E00000
FFFF80
FFFF80
FFFF80
E00000
E00000
E00000
E00000
E00000
E00000
E00000
E00000
FFFF80
FFFF80
FFFF80
ENDCHAR
STARTCHAR 0066
ENCODING 102
SWIDTH 477 0
DWIDTH 21 0
BBX 16 25 3 0
BITMAP
FFFF
FFFF
FFFF
E000
E000
E000
E000
E000
E000
E000
E000
FFFF
FFFF
FFFF
E000
E000
E000
E000
E000
E000
E000
E000
E000
E000
E000
ENDCHAR
STARTCHAR 0067
ENCODING 103
SWIDTH 590 0
DWIDTH 26 0
BBX 21 25 2 0
BITMAP
07FFC0
1FFFE0
3FFFF0
7800F8
700078
E00038
E00038
E00038
E00000
E00000
E00000
E00000
E03FF8
E03FF8
E03FF8
E00038
E00038
E00038
E00038
E00038
700078
7800F0
7FFFF0
1FFFE0
07FF80
ENDCHAR
STARTCHAR 0068
ENCODING 104
SWIDTH 613 0
DWIDTH 27 0
BBX 21 25 3 0
BITMAP
E00038
E00038
E00038
E00038
E00038
E00038
E00038
E00038
E00038
E00038
E00038
FFFFF8
FFFFF8
FFFFF8
E00038
E00038
E00038
E00038
E00038
E00038
E00038
E00038
E00038
E00038
E00038
ENDCHAR
STARTCHAR 0069
ENCODING 105
SWIDTH 227 0
DWIDTH 10 0
BBX 3 25 3 0
BITMAP
E0
E0
E0
E0
E0
E0
E0
E0
E0
E0
E0
E0
E0
E0
E0
E0
E0
E0
E0
E0
E0
E0
E0
E0
E0
ENDCHAR
STARTCHAR 006A
ENCODING 106
SWIDTH 477 0
DWIDTH 21 0
BBX 16 25 2 0
BITMAP
0007
0007
0007
0007
0007
0007
0007
0007
0007
0007
0007
0007
0007
0007
0007
E007
E007
E007
E007
E007
E00F
F00F
7FFE
3FFC
0FF0
ENDCHAR
STARTCHAR 006B
ENCODING 107
SWIDTH 568 0
DWIDTH 25 0
BBX 21 25 3 0
BITMAP
E001F0
E003E0
E007C0
E00F80
E01F00
E03E00
E03C00
E07800
E0F000
E1E000
E3C000
FF8000
FF0000
FF8000
E3C000
E1F000
E0F800
E07C00
E03E00
E01F00
E00F80
E007C0
E003E0
E001F0
E000F8
ENDCHAR
STARTCHAR 006C
ENCODING 108
SWIDTH 477 0
DWIDTH 21 0
BBX 17 25 3 0
BITMAP
E00000
E00000
E00000
E00000
E00000
E00000
E00000
E00000
E00000
E00000
E00000
E00000
E00000
E00000
E00000
E00000
E00000
E00000
E00000
E00000
E00000
E00000
FFFF80
FFFF80
FFFF80
ENDCHAR
STARTCHAR 006D
ENCODING 109
SWIDTH 772 0
DWIDTH 34 0
BBX 28 25 3 0
BITMAP
F80001F0
FC0003F0
FC0003F0
FC0007F0
EE000770
EE000770
EF000F70
E7000E70
E7801E70
E3801C70
E3801C70
E1C03870
E1C03870
E1E07870
E0E07070
E0F0F070
E070E070
E070E070
E039C070
E039C070
E03FC070
E01F8070
E01F8070
E00F0070
E00F0070
ENDCHAR
STARTCHAR 006E
ENCODING 110
SWIDTH 636 0
DWIDTH 28 0
BBX 22 25 3 0
BITMAP
F8001C
FC001C
FC001C
FE001C
EF001C
E7001C
E7801C
E3C01C
E1C01C
E1E01C
E0F01C
E0F01C
E0781C
E03C1C
E03C1C
E01E1C
E00E1C
E00F1C
E0079C
E0039C
E003DC
E001FC
E000FC
E000FC
E0007C
ENDCHAR
STARTCHAR 006F
ENCODING 111
SWIDTH 590 0
DWIDTH 26 0
BBX 22 25 2 0
BITMAP
07FF80
1FFFE0
3FFFF0
780078
700038
F0003C
F0001C
E0001C
E0001C
E0001C
E0001C
E0001C
E0001C
E0001C
E0001C
E0001C
E0001C
E0001C
F0001C
F0003C
700038
780078
3FFFF0
1FFFE0
07FF80
ENDCHAR
STARTCHAR 0070
ENCODING 112
SWIDTH 545 0
DWIDTH 24 0
BBX 19 25 3 0
BITMAP
FFFF00
FFFF80
FFFFC0
E001C0
E000E0
E000E0
E000E0
E000E0
E000E0
E000E0
E000E0
E003C0
FFFFC0
FFFF80
FFFF00
E00000
E00000
E00000
E00000
E00000
E00000
E00000
E00000
E00000
E00000
ENDCHAR
STARTCHAR 0071
ENCODING 113
SWIDTH 590 0
DWIDTH 26 0
BBX 24 25 2 0
BITMAP
07FF80
1FFFE0
3FFFF0
780078
700038
F0003C
F0001C
E0001C
E0001C
E0001C
E0001C
E0001C
E0001C
E0001C
E00C1C
E01E1C
E01F9C
E007DC
F003FC
F000FC
70007E
78007F
3FFFFF
1FFFF2
07FFC0
ENDCHAR
STARTCHAR 0072
ENCODING 114
SWIDTH 590 0
DWIDTH 26 0
BBX 20 25 3 0
BITMAP
FFFF00
FFFFC0
FFFFE0
E000E0
E00070
E00070
E00070
E00070
E00070
E00070
E000F0
E001E0
FFFFE0
FFFF80
FFFFE0
E001E0
E000F0
E00070
E00070
E00070
E00070
E00070
E00070
E00070
E00070
ENDCHAR
STARTCHAR 0073
ENCODING 115
SWIDTH 545 0
DWIDTH 24 0
BBX 20 25 2 0
BITMAP
0FFF00
3FFFC0
7FFFC0
7801E0
E000E0
E000E0
E000E0
E00000
E00000
F00000
7C0000
7FFF80
3FFFC0
07FFE0
0000F0
000070
000070
E00070
E00070
E00070
F00070
F800F0
7FFFE0
3FFFC0
1FFF00
ENDCHAR
STARTCHAR 0074
ENCODING 116
SWIDTH 500 0
DWIDTH 22 0
BBX 20 25 1 0
BITMAP
FFFFF0
FFFFF0
FFFFF0
00E000
00E000
00E000
00E000
00E000
00E000
00E000
00E000
00E000
00E000
00E000
00E000
00E000
00E000
00E000
00E000
00E000
00E000
00E000
00E000
00E000
00E000
ENDCHAR
STARTCHAR 0075
ENCODING 117
SWIDTH 613 0
DWIDTH 27 0
BBX 21 25 3 0
BITMAP
E00038
E00038
E00038
E00038
E00038
E00038
E00038
E00038
E00038
E00038
E00038
E00038
E00038
E00038
E00038
E00038
E00038
E00038
E00038
E00038
E00078
7800F0
7FFFF0
3FFFE0
0FFF80
ENDCHAR
STARTCHAR 0076
ENCODING 118
SWIDTH 545 0
DWIDTH 24 0
BBX 23 25 0 0
BITMAP
F0001E
78001E
78001C
38003C
3C003C
3C0038
1C0078
1E0078
1E00F0
0E00F0
0F00E0
0701E0
0781E0
0781C0
0383C0
03C3C0
03C380
01C780
01E700
00EF00
00FF00
00FE00
007E00
007E00
007C00
ENDCHAR
STARTCHAR 0077
ENCODING 119
SWIDTH 886 0
DWIDTH 39 0
BBX 38 25 0 0
BITMAP
F0007C001C
70007C003C
7800FC003C
7800FE0038
3800EE0078
3C01EE0078
3C01CF0070
1C01CF00F0
1C03C700F0
1E038700E0
0E038780E0
0E038381E0
0F078381C0
070703C1C0
070701C3C0
078F01C380
038E01E380
038E01E780
03DE00E700
03DC00E700
01DC00FF00
01DC007E00
01FC007E00
00F8007E00
00F8007C00
ENDCHAR
STARTCHAR 0078
ENCODING 120
SWIDTH 545 0
DWIDTH 24 0
BBX 23 25 0 0
BITMAP
78001E
3C003C
3E0078
1E0078
0F00F0
0781E0
0783E0
03C3C0
01E780
01FF00
00FF00
007E00
007E00
00FF00
00FF00
01E780
03C3C0
07C3C0
0781E0
0F00F0
1E00F8
1E0078
3C003C
78001E
F8001E
ENDCHAR
STARTCHAR 0079
ENCODING 121
SWIDTH 522 0
DWIDTH 23 0
BBX 22 25 1 0
BITMAP
F0007C
F00078
7800F0
3C01F0
3C01E0
1E03C0
0F0380
0F0780
078F00
03CE00
03DE00
01FC00
00F800
00F800
007000
007000
007000
007000
007000
007000
007000
007000
007000
007000
007000
ENDCHAR
STARTCHAR 007A
ENCODING 122
SWIDTH 522 0
DWIDTH 23 0
BBX 21 25 1 0
BITMAP
7FFFF0
7FFFF0
7FFFF0
0001E0
0001E0
0003C0
000780
000F00
001E00
003E00
003C00
007800
00F000
01F000
03E000
07C000
078000
0F0000
1F0000
3E0000
7C0000
780000
FFFFF8
FFFFF8
FFFFF8
ENDCHAR
STARTCHAR 007B
ENCODING 123
SWIDTH 318 0
DWIDTH 14 0
BBX 11 40 1 -8
BITMAP
03E0
0FE0
0FE0
1E00
1E00
1C00
1C00
1C00
1C00
1C00
1C00
1C00
1C00
1C00
1C00
1C00
1C00
3C00
F800
F000
F000
F800
3C00
1C00
1C00
1C00
1C00
1C00
1C00
1C00
1C00
1C00
1C00
1C00
1C00
1E00
1F00
0FE0
0FE0
03E0
ENDCHAR
STARTCHAR 007C
ENCODING 124
SWIDTH 295 0
DWIDTH 13 0
BBX 4 36 4 -7
BITMAP
F0
F0
F0
F0
F0
F0
F0
F0
F0
F0
F0
F0
F0
F0
F0
F0
F0
F0
F0
F0
F0
F0
F0
F0
F0
F0
F0
F0
F0
F0
F0
F0
F0
F0
F0
F0
ENDCHAR
STARTCHAR 007D
ENCODING 125
SWIDTH 318 0
DWIDTH 14 0
BBX 11 40 2 -8
BITMAP
F800
FC00
FE00
1F00
0F00
0700
0700
0700
0700
0700
0700
0700
0700
0700
0700
0700
0700
0780
03E0
01E0
01E0
03E0
0780
0700
0700
0700
0700
0700
0700
0700
0700
0700
0700
0700
0700
0F00
0F00
FE00
FE00
F800
ENDCHAR
STARTCHAR 007E
ENCODING 126
SWIDTH 659 0
DWIDTH 29 0
BBX 21 6 4 26
BITMAP
0F0010
3FE038
3FF878
70FFF0
E01FE0
600780
ENDCHAR
STARTCHAR 00A0
ENCODING 160
SWIDTH 295 0
DWIDTH 13 0
BBX 0 0 0 0
BITMAP
ENDCHAR
STARTCHAR 00A1
ENCODING 161
SWIDTH 250 0
DWIDTH 11 0
BBX 4 29 4 -4
BITMAP
F0
F0
F0
F0
F0
00
00
00
F0
F0
F0
F0
F0
F0
F0
F0
F0
F0
F0
F0
F0
F0
F0
F0
F0
F0
F0
F0
F0
ENDCHAR
STARTCHAR 00A2
ENCODING 162
SWIDTH 477 0
DWIDTH 21 0
BBX 16 23 2 0
BITMAP
01C0
01C0
07F0
3FFC
7FFE
71C7
E1C7
E1C7
E1C0
E1C0
E1C0
E1C0
E1C0
E1C7
E1C7
F1C7
71C7
7FFF
3FFE
1FFC
01C0
01C0
01C0
ENDCHAR
STARTCHAR 00A3
ENCODING 163
SWIDTH 522 0
DWIDTH 23 0
BBX 21 25 1 0
BITMAP
01FF00
07FFC0
0FFFE0
1E00F0
1C0070
1C0070
1C0070
1C0070
1C0000
1C0000
1C0000
1C0000
FFFC00
FFFC00
FFFC00
1C0000
1C0000
1C0000
1C0000
1C0000
1C0000
380000
7FFFF8
7FFFF8
7FFFF8
ENDCHAR
STARTCHAR 00A4
ENCODING 164
SWIDTH 659 0
DWIDTH 29 0
BBX 24 23 2 1
BITMAP
600003
F00007
787F0E
3DFFDC
1FFFF8
0FC1F0
0F0078
1E003C
1C001C
38000E
38000E
38000E
38000E
38000E
38000E
1C001C
1E003C
0F0078
0FC1F8
1FFFFC
39FFCE
703E07
600003
ENDCHAR
STARTCHAR 00A5
ENCODING 165
SWIDTH 522 0
DWIDTH 23 0
BBX 20 26 1 0
BITMAP
E000F0
F000F0
7801E0
7803C0
3C03C0
1C0780
1E0780
0E0F00
7F1FE0
7F1FE0
7FBFE0
03F800
01F800
01F000
7FFFE0
7FFFE0
7FFFE0
00E000
00E000
00E000
00E000
00E000
00E000
00E000
00E000
00E000
ENDCHAR
STARTCHAR 00A6
ENCODING 166
SWIDTH 295 0
DWIDTH 13 0
BBX 4 36 4 -7
BITMAP
F0
F0
F0
F0
F0
F0
F0
F0
F0
F0
F0
F0
F0
F0
F0
00
00
00
00
00
00
00
F0
F0
F0
F0
F0
F0
F0
F0
F0
F0
F0
F0
F0
F0
ENDCHAR
STARTCHAR 00A7
ENCODING 167
SWIDTH 568 0
DWIDTH 25 0
BBX 21 37 2 -8
BITMAP
07FF80
3FFFE0
3FFFE0
7801F0
700070
700070
700070
700000
700000
780000
3F0000
1FF000
3FFE00
70FFC0
E00FF0
E001F8
E00078
E00038
E00038
F00038
780038
7F8030
3FF870
07FFC0
007FE0
0007F0
0000F8
000038
000038
F00038
700038
700038
700078
7C00F0
3FFFF0
3FFFE0
07FF80
ENDCHAR
STARTCHAR 00A8
ENCODING 168
SWIDTH 500 0
DWIDTH 22 0
BBX 12 3 5 30
BITMAP
F0F0
F0F0
F0F0
ENDCHAR
STARTCHAR 00A9
ENCODING 169
SWIDTH 750 0
DWIDTH 33 0
BBX 30 29 1 0
BITMAP
001FE000
00FFFC00
01F03E00
07800780
0F0003C0
1E0001E0
3C1FF0E0
387FF870
70701C38
70E00C38
70E00C38
E0E0001C
E0E0001C
E0E0001C
E0E0001C
E0E0001C
E0E0001C
E0E00C1C
70E00C38
70E00C38
70701C38
387FFC70
3C1FF0F0
1E0001E0
0F0003C0
07800780
01E03E00
00FFFC00
001FE000
ENDCHAR
STARTCHAR 00AA
ENCODING 170
SWIDTH 363 0
DWIDTH 16 0
BBX 13 14 2 11
BITMAP
3FE0
7FF0
6078
E038
0038
3FB8
7FF8
F078
E038
E038
E038
F078
7FF8
3FB8
ENDCHAR
STARTCHAR 00AB
ENCODING 171
SWIDTH 477 0
DWIDTH 21 0
BBX 16 20 2 3
BITMAP
0606
0F0F
0E0E
1E1E
1C1C
3C1C
3838
7838
7070
F070
7070
7838
3838
3C1C
1C1C
1E0E
0E0E
0F07
0707
0402
ENDCHAR
STARTCHAR 00AC
ENCODING 172
SWIDTH 500 0
DWIDTH 22 0
BBX 20 12 1 0
BITMAP
FFFFF0
FFFFF0
FFFFF0
000070
000070
000070
000070
000070
000070
000070
000070
000070
ENDCHAR
STARTCHAR 00AD
ENCODING 173
SWIDTH 250 0
DWIDTH 11 0
BBX 11 3 0 11
BITMAP
FFE0
FFE0
FFE0
ENDCHAR
STARTCHAR 00AE
ENCODING 174
SWIDTH 750 0
DWIDTH 33 0
BBX 29 29 2 0
BITMAP
001FC000
00FFF800
03E03E00
07800F00
0F000780
1E0003C0
3CFFE1E0
38FFF0E0
70E07870
70E03870
70E03870
E0E03838
E0E03838
E0E07838
E0FFF038
E0FFE038
E0E07038
E0E03838
70E03870
70E03870
70E03870
38E038E0
3CE039E0
1E0003C0
0F000780
07800F00
03E03E00
00FFF800
001FC000
ENDCHAR
STARTCHAR 00AF
ENCODING 175
SWIDTH 500 0
DWIDTH 22 0
BBX 22 2 0 33
BITMAP
FFFFFC
FFFFFC
ENDCHAR
STARTCHAR 00B0
ENCODING 176
SWIDTH 363 0
DWIDTH 16 0
BBX 12 12 2 17
BITMAP
0F00
3FC0
70E0
6060
C030
C030
C030
C030
6060
70E0
3FC0
0F00
ENDCHAR
STARTCHAR 00B1
ENCODING 177
SWIDTH 522 0
DWIDTH 23 0
BBX 21 24 1 0
BITMAP
007000
007000
007000
007000
007000
007000
007000
FFFFF8
FFFFF8
FFFFF8
007000
007000
007000
007000
007000
007000
007000
007000
000000
000000
000000
FFFFF8
FFFFF8
FFFFF8
ENDCHAR
STARTCHAR 00B2
ENCODING 178
SWIDTH 409 0
DWIDTH 18 0
BBX 14 19 2 7
BITMAP
1FE0
7FF8
7FF8
F03C
E01C
E01C
E01C
001C
001C
00F8
3FF8
7FE0
F000
E000
E000
E000
FFFC
FFFC
FFFC
ENDCHAR
STARTCHAR 00B3
ENCODING 179
SWIDTH 409 0
DWIDTH 18 0
BBX 14 18 2 7
BITMAP
1FF0
7FF8
7FFC
E01C
E01C
E01C
001C
07F8
07F0
07F8
001C
E01C
E01C
E01C
E03C
7FFC
7FF8
1FE0
ENDCHAR
STARTCHAR 00B4
ENCODING 180
SWIDTH 500 0
DWIDTH 22 0
BBX 8 7 8 29
BITMAP
02
07
1F
3E
78
F0
40
ENDCHAR
STARTCHAR 00B5
ENCODING 181
SWIDTH 590 0
DWIDTH 26 0
BBX 21 28 3 -6
BITMAP
E00038
E00038
E00038
E00038
E00038
E00038
E00038
E00038
E00038
E00038
E00038
E00038
E00038
E00038
E00038
E00038
E00038
E00078
F800F0
FFFFF0
FFFFE0
DFFF80
C00000
C00000
C00000
C00000
C00000
C00000
ENDCHAR
STARTCHAR 00B6
ENCODING 182
SWIDTH 613 0
DWIDTH 27 0
BBX 22 33 2 -4
BITMAP
07FFFC
1FFFFC
3FFFFC
7FFC1C
7FFC1C
FFFC1C
FFFC1C
FFFC1C
FFFC1C
FFFC1C
FFFC1C
FFFC1C
FFFC1C
FFFC1C
FFFC1C
7FFC1C
7FFC1C
3FFC1C
1FFC1C
07FC1C
001C1C
001C1C
001C1C
001C1C
001C1C
001C1C
001C1C
001C1C
001C1C
001C1C
001C1C
001C1C
001C1C
ENDCHAR
STARTCHAR 00B7
ENCODING 183
SWIDTH 204 0
DWIDTH 9 0
BBX 4 5 3 10
BITMAP
F0
F0
F0
F0
F0
ENDCHAR
STARTCHAR 00B8
ENCODING 184
SWIDTH 500 0
DWIDTH 22 0
BBX 8 8 7 -9
BITMAP
07
07
07
0F
0F
FE
FC
F0
ENDCHAR
STARTCHAR 00B9
ENCODING 185
SWIDTH 409 0
DWIDTH 18 0
BBX 9 19 5 7
BITMAP
0780
0F80
1F80
3F80
7B80
F380
6380
0380
0380
0380
0380
0380
0380
0380
0380
0380
0380
0380
0380
ENDCHAR
STARTCHAR 00BA
ENCODING 186
SWIDTH 386 0
DWIDTH 17 0
BBX 13 15 2 10
BITMAP
1FC0
7FF0
7070
E038
E038
E038
E038
E038
E038
E038
E038
E038
7070
7FF0
1FC0
ENDCHAR
STARTCHAR 00BB
ENCODING 187
SWIDTH 477 0
DWIDTH 21 0
BBX 16 20 3 3
BITMAP
6060
F070
7070
7838
3838
3C3C
1C1C
1C1E
0E0E
0E0F
0E0E
1E1E
1C1C
383C
3838
7078
7070
E0F0
E0E0
4020
ENDCHAR
STARTCHAR 00BC
ENCODING 188
SWIDTH 954 0
DWIDTH 42 0
BBX 38 26 2 0
BITMAP
078001C000
0F8001C000
1F80038000
3F80038000
7B80070000
F380060000
63800E0000
03801C01E0
03801C03E0
03803807E0
0380380FE0
0380700EE0
0380701CE0
0380E03CE0
0380E078E0
0381C0F0E0
0381C1E0E0
038381C0E0
00030380E0
000703FFFC
000E03FFFC
000E03FFFC
001C0000E0
001C0000E0
00380000E0
00380000E0
ENDCHAR
STARTCHAR 00BD
ENCODING 189
SWIDTH 954 0
DWIDTH 42 0
BBX 38 26 2 0
BITMAP
0780038000
0F80070000
1F80060000
3F800E0000
7B800C0000
F3801C0000
6380380000
0380383FE0
038070FFF8
038070FFF8
0380E1E03C
0380E1C01C
0381C1C01C
0381C1C01C
038380001C
038380001C
0387000078
0386003FF8
000E00FFC0
000C01F000
001C01C000
001801C000
003801C000
007001FFFC
007001FFFC
00E001FFFC
ENDCHAR
STARTCHAR 00BE
ENCODING 190
SWIDTH 954 0
DWIDTH 42 0
BBX 40 26 1 0
BITMAP
1FF0007000
3FFC00E000
7FFE00E000
781E01C000
F00E01C000
F00E038000
F00E038000
001E070000
03FC070078
03F80E00F8
03FC0C01F8
000E1C03B8
E00E380738
E00E380E38
E00E701C38
FFFE703C38
7FFCE07838
1FF8E0F038
0001C1E038
0001C1FFFF
000381FFFF
000381FFFF
0007000038
0006000038
000E000038
000C000038
ENDCHAR
STARTCHAR 00BF
ENCODING 191
SWIDTH 477 0
DWIDTH 21 0
BBX 15 30 3 -4
BITMAP
01E0
01E0
01E0
01E0
01E0
0000
0000
0000
0000
01C0
01C0
01C0
01C0
01C0
03C0
0FC0
3F80
7E00
F000
E000
E000
E000
E00E
E00E
E00E
E00E
F01E
7FFC
7FFC
1FF0
ENDCHAR
STARTCHAR 00C0
ENCODING 192
SWIDTH 545 0
DWIDTH 24 0
BBX 23 35 1 1
BITMAP
010000
038000
03E000
01F000
007800
001C00
000800
000000
000000
000000
007C00
00FC00
00FC00
00FE00
01EE00
01CE00
03CF00
03C700
038780
078780
078380
0703C0
0F01C0
0E01E0
1E01E0
1E00E0
1C00F0
3FFFF0
3FFFF8
3FFFF8
780038
70003C
F0003C
F0001C
E0001E
ENDCHAR
STARTCHAR 00C1
ENCODING 193
SWIDTH 545 0
DWIDTH 24 0
BBX 23 35 1 1
BITMAP
000200
000700
001F00
003E00
007800
00F000
004000
000000
000000
000000
007C00
00FC00
00FC00
00FE00
01EE00
01CE00
03CF00
03C700
038780
078780
078380
0703C0
0F01C0
0E01E0
1E01E0
1E00E0
1C00F0
3FFFF0
3FFFF8
3FFFF8
780038
70003C
F0003C
F0001C
E0001E
ENDCHAR
STARTCHAR 00C2
ENCODING 194
SWIDTH 545 0
DWIDTH 24 0
BBX 23 35 1 0
BITMAP
003000
007800
00FC00
01FE00
078780
070380
020100
000000
000000
000000
007C00
00FC00
00FC00
00FE00
01EE00
01CE00
03CF00
03C700
038780
078780
078380
0703C0
0F01C0
0E01E0
1E01E0
1E00E0
1C00F0
3FFFF0
3FFFF8
3FFFF8
780038
70003C
F0003C
F0001C
E0001E
ENDCHAR
STARTCHAR 00C3
ENCODING 195
SWIDTH 545 0
DWIDTH 24 0
BBX 23 33 1 0
BITMAP
03E100
07FFC0
07FF80
061F00
000000
000000
000000
000000
007C00
00FC00
00FC00
00FE00
01EE00
01CE00
03CF00
03C700
038780
078780
078380
0703C0
0F01C0
0E01E0
1E01E0
1E00E0
1C00F0
3FFFF0
3FFFF8
3FFFF8
780038
70003C
F0003C
F0001C
E0001E
ENDCHAR
STARTCHAR 00C4
ENCODING 196
SWIDTH 545 0
DWIDTH 24 0
BBX 23 33 1 0
BITMAP
078780
078780
078780
000000
000000
000000
000000
000000
007C00
00FC00
00FC00
00FE00
01EE00
01CE00
03CF00
03C700
038780
078780
078380
0703C0
0F01C0
0E01E0
1E01E0
1E00E0
1C00F0
3FFFF0
3FFFF8
3FFFF8
780038
70003C
F0003C
F0001C
E0001E
ENDCHAR
STARTCHAR 00C5
ENCODING 197
SWIDTH 545 0
DWIDTH 24 0
BBX 23 35 1 0
BITMAP
007800
00FC00
01CE00
018600
01CE00
00FC00
007800
000000
000000
000000
007C00
00FC00
00FC00
00FE00
01EE00
01CE00
03CF00
03C700
038780
078780
078380
0703C0
0F01C0
0E01E0
1E01E0
1E00E0
1C00F0
3FFFF0
3FFFF8
3FFFF8
780038
70003C
F0003C
F0001C
E0001E
ENDCHAR
STARTCHAR 00C6
ENCODING 198
SWIDTH 840 0
DWIDTH 37 0
BBX 34 25 1 0
BITMAP
0003FFFFC0
0007FFFFC0
0007FFFFC0
000F380000
001E380000
001E380000
003C380000
003C380000
0078380000
0070380000
00F0380000
01E03FFF80
01E03FFF80
03C03FFF80
03C0380000
0780380000
0780380000
0FFFF80000
0FFFF80000
1FFFF80000
3E00380000
3C00380000
78003FFFC0
78003FFFC0
F0003FFFC0
ENDCHAR
STARTCHAR 00C7
ENCODING 199
SWIDTH 568 0
DWIDTH 25 0
BBX 21 34 2 -9
BITMAP
07FF80
3FFFE0
7FFFF0
7C0070
F80038
F00038
F00038
F00038
F00000
F00000
F00000
F00000
F00000
F00000
F00000
F00000
F00038
F00038
F00038
F80038
F80038
7C0078
7FFFF0
3FFFE0
0FFF80
000000
001C00
001C00
001C00
001C00
003C00
03F800
03F000
03E000
ENDCHAR
STARTCHAR 00C8
ENCODING 200
SWIDTH 500 0
DWIDTH 22 0
BBX 17 35 3 1
BITMAP
040000
0E0000
0F8000
07C000
01E000
007000
002000
000000
000000
000000
FFFF80
FFFF80
FFFF80
E00000
E00000
E00000
E00000
E00000
E00000
E00000
E00000
FFFF80
FFFF80
FFFF80
E00000
E00000
E00000
E00000
E00000
E00000
E00000
E00000
FFFF80
FFFF80
FFFF80
ENDCHAR
STARTCHAR 00C9
ENCODING 201
SWIDTH 500 0
DWIDTH 22 0
BBX 17 35 3 1
BITMAP
000800
001C00
007C00
00F800
01E000
03C000
010000
000000
000000
000000
FFFF80
FFFF80
FFFF80
E00000
E00000
E00000
E00000
E00000
E00000
E00000
E00000
FFFF80
FFFF80
FFFF80
E00000
E00000
E00000
E00000
E00000
E00000
E00000
E00000
FFFF80
FFFF80
FFFF80
ENDCHAR
STARTCHAR 00CA
ENCODING 202
SWIDTH 500 0
DWIDTH 22 0
BBX 17 35 3 0
BITMAP
00C000
01E000
03F000
07F800
1E1E00
1C0E00
080400
000000
000000
000000
FFFF80
FFFF80
FFFF80
E00000
E00000
E00000
E00000
E00000
E00000
E00000
E00000
FFFF80
FFFF80
FFFF80
E00000
E00000
E00000
E00000
E00000
E00000
E00000
E00000
FFFF80
FFFF80
FFFF80
ENDCHAR
STARTCHAR 00CB
ENCODING 203
SWIDTH 500 0
DWIDTH 22 0
BBX 17 33 3 0
BITMAP
1E1E00
1E1E00
1E1E00
000000
000000
000000
000000
000000
FFFF80
FFFF80
FFFF80
E00000
E00000
E00000
E00000
E00000
E00000
E00000
E00000
FFFF80
FFFF80
FFFF80
E00000
E00000
E00000
E00000
E00000
E00000
E00000
E00000
FFFF80
FFFF80
FFFF80
ENDCHAR
STARTCHAR 00CC
ENCODING 204
SWIDTH 227 0
DWIDTH 10 0
BBX 8 35 0 1
BITMAP
40
E0
F8
7C
1E
07
02
00
00
00
1C
1C
1C
1C
1C
1C
1C
1C
1C
1C
1C
1C
1C
1C
1C
1C
1C
1C
1C
1C
1C
1C
1C
1C
1C
ENDCHAR
STARTCHAR 00CD
ENCODING 205
SWIDTH 227 0
DWIDTH 10 0
BBX 8 35 2 1
BITMAP
02
07
1F
3E
78
F0
40
00
00
00
70
70
70
70
70
70
70
70
70
70
70
70
70
70
70
70
70
70
70
70
70
70
70
70
70
ENDCHAR
STARTCHAR 00CE
ENCODING 206
SWIDTH 227 0
DWIDTH 10 0
BBX 12 35 -1 0
BITMAP
0400
0F00
1F80
7BC0
F0E0
E070
8020
0000
0000
0000
0E00
0E00
0E00
0E00
0E00
0E00
0E00
0E00
0E00
0E00
0E00
0E00
0E00
0E00
0E00
0E00
0E00
0E00
0E00
0E00
0E00
0E00
0E00
0E00
0E00
ENDCHAR
STARTCHAR 00CF
ENCODING 207
SWIDTH 227 0
DWIDTH 10 0
BBX 10 33 0 0
BITMAP
F3C0
F3C0
F3C0
0000
0000
0000
0000
0000
1C00
1C00
1C00
1C00
1C00
1C00
1C00
1C00
1C00
1C00
1C00
1C00
1C00
1C00
1C00
1C00
1C00
1C00
1C00
1C00
1C00
1C00
1C00
1C00
1C00
ENDCHAR
STARTCHAR 00D0
ENCODING 208
SWIDTH 613 0
DWIDTH 27 0
BBX 24 25 1 0
BITMAP
1FFFE0
1FFFF8
1FFFFC
1C001E
1C000E
1C0006
1C0007
1C0007
1C0007
1C0007
1C0007
FFF007
FFF007
FFF007
1C0007
1C0007
1C0007
1C0007
1C0007
1C000F
1C000E
1C003E
1FFFFC
1FFFF8
1FFFE0
ENDCHAR
STARTCHAR 00D1
ENCODING 209
SWIDTH 636 0
DWIDTH 28 0
BBX 22 33 3 0
BITMAP
03E100
07FFC0
07FF80
061F00
000000
000000
000000
000000
F8001C
FC001C
FC001C
FE001C
EF001C
E7001C
E7801C
E3C01C
E1C01C
E1E01C
E0F01C
E0F01C
E0781C
E03C1C
E03C1C
E01E1C
E00E1C
E00F1C
E0079C
E0039C
E003DC
E001FC
E000FC
E000FC
E0007C
ENDCHAR
STARTCHAR 00D2
ENCODING 210
SWIDTH 590 0
DWIDTH 26 0
BBX 22 35 2 1
BITMAP
010000
038000
03E000
01F000
007800
001C00
000800
000000
000000
000000
07FF80
1FFFE0
3FFFF0
780078
700038
F0003C
F0001C
E0001C
E0001C
E0001C
E0001C
E0001C
E0001C
E0001C
E0001C
E0001C
E0001C
E0001C
F0001C
F0003C
700038
780078
3FFFF0
1FFFE0
07FF80
ENDCHAR
STARTCHAR 00D3
ENCODING 211
SWIDTH 590 0
DWIDTH 26 0
BBX 22 35 2 1
BITMAP
000200
000700
001F00
003E00
007800
00F000
004000
000000
000000
000000
07FF80
1FFFE0
3FFFF0
780078
700038
F0003C
F0001C
E0001C
E0001C
E0001C
E0001C
E0001C
E0001C
E0001C
E0001C
E0001C
E0001C
E0001C
F0001C
F0003C
700038
780078
3FFFF0
1FFFE0
07FF80
ENDCHAR
STARTCHAR 00D4
ENCODING 212
SWIDTH 590 0
DWIDTH 26 0
BBX 22 35 2 0
BITMAP
003000
007800
00FC00
01FE00
078780
070380
020100
000000
000000
000000
07FF80
1FFFE0
3FFFF0
780078
700038
F0003C
F0001C
E0001C
E0001C
E0001C
E0001C
E0001C
E0001C
E0001C
E0001C
E0001C
E0001C
E0001C
F0001C
F0003C
700038
780078
3FFFF0
1FFFE0
07FF80
ENDCHAR
STARTCHAR 00D5
ENCODING 213
SWIDTH 590 0
DWIDTH 26 0
BBX 22 33 2 0
BITMAP
03E100
07FFC0
07FF80
061F00
000000
000000
000000
000000
07FF80
1FFFE0
3FFFF0
780078
700038
F0003C
F0001C
E0001C
E0001C
E0001C
E0001C
E0001C
E0001C
E0001C
E0001C
E0001C
E0001C
E0001C
F0001C
F0003C
700038
780078
3FFFF0
1FFFE0
07FF80
ENDCHAR
STARTCHAR 00D6
ENCODING 214
SWIDTH 590 0
DWIDTH 26 0
BBX 22 33 2 0
BITMAP
078780
078780
078780
000000
000000
000000
000000
000000
07FF80
1FFFE0
3FFFF0
780078
700038
F0003C
F0001C
E0001C
E0001C
E0001C
E0001C
E0001C
E0001C
E0001C
E0001C
E0001C
E0001C
E0001C
F0001C
F0003C
700038
780078
3FFFF0
1FFFE0
07FF80
ENDCHAR
STARTCHAR 00D7
ENCODING 215
SWIDTH 522 0
DWIDTH 23 0
BBX 19 18 2 4
BITMAP
6000C0
F001E0
7803C0
3C0780
1E0F00
0F1E00
07BC00
03F800
01F000
01F000
03F800
07BC00
0F1E00
1E0F00
3C0780
7803C0
7001C0
200080
ENDCHAR
STARTCHAR 00D8
ENCODING 216
SWIDTH 545 0
DWIDTH 24 0
BBX 22 25 1 0
BITMAP
0FFF84
3FFFEC
3FFFFC
7800F8
F000F8
E000FC
E001FC
E003DC
E0079C
E00F1C
E01E1C
E03C1C
E0781C
E0F01C
E1E01C
E3C01C
E7801C
EF001C
FE001C
FE001C
7C003C
7C0078
FFFFF8
DFFFF0
87FFC0
ENDCHAR
STARTCHAR 00D9
ENCODING 217
SWIDTH 613 0
DWIDTH 27 0
BBX 21 35 3 1
BITMAP
020000
070000
07C000
03E000
00F000
003800
001000
000000
000000
000000
E00038
E00038
E00038
E00038
E00038
E00038
E00038
E00038
E00038
E00038
E00038
E00038
E00038
E00038
E00038
E00038
E00038
E00038
E00038
E00038
E00078
7800F0
7FFFF0
3FFFE0
0FFF80
ENDCHAR
STARTCHAR 00DA
ENCODING 218
SWIDTH 613 0
DWIDTH 27 0
BBX 21 35 3 1
BITMAP
000400
000E00
003E00
007C00
00F000
01E000
008000
000000
000000
000000
E00038
E00038
E00038
E00038
E00038
E00038
E00038
E00038
E00038
E00038
E00038
E00038
E00038
E00038
E00038
E00038
E00038
E00038
E00038
E00038
E00078
7800F0
7FFFF0
3FFFE0
0FFF80
ENDCHAR
STARTCHAR 00DB
ENCODING 219
SWIDTH 613 0
DWIDTH 27 0
BBX 21 35 3 0
BITMAP
006000
00F000
01F800
03FC00
0F0F00
0E0700
040200
000000
000000
000000
E00038
E00038
E00038
E00038
E00038
E00038
E00038
E00038
E00038
E00038
E00038
E00038
E00038
E00038
E00038
E00038
E00038
E00038
E00038
E00038
E00078
7800F0
7FFFF0
3FFFE0
0FFF80
ENDCHAR
STARTCHAR 00DC
ENCODING 220
SWIDTH 613 0
DWIDTH 27 0
BBX 21 33 3 0
BITMAP
0F0F00
0F0F00
0F0F00
000000
000000
000000
000000
000000
E00038
E00038
E00038
E00038
E00038
E00038
E00038
E00038
E00038
E00038
E00038
E00038
E00038
E00038
E00038
E00038
E00038
E00038
E00038
E00038
E00078
7800F0
7FFFF0
3FFFE0
0FFF80
ENDCHAR
STARTCHAR 00DD
ENCODING 221
SWIDTH 522 0
DWIDTH 23 0
BBX 22 35 1 1
BITMAP
000400
000E00
003E00
007C00
00F000
01E000
008000
000000
000000
000000
F0007C
F00078
7800F0
3C01F0
3C01E0
1E03C0
0F0380
0F0780
078F00
03CE00
03DE00
01FC00
00F800
00F800
007000
007000
007000
007000
007000
007000
007000
007000
007000
007000
007000
ENDCHAR
STARTCHAR 00DE
ENCODING 222
SWIDTH 522 0
DWIDTH 23 0
BBX 19 25 3 0
BITMAP
E00000
E00000
E00000
E00000
E00000
FFFF00
FFFF80
FFFFC0
E001C0
E000E0
E000E0
E000E0
E000E0
E000E0
E000E0
E000E0
E001C0
FFFFC0
FFFF80
FFFF00
E00000
E00000
E00000
E00000
E00000
ENDCHAR
STARTCHAR 00DF
ENCODING 223
SWIDTH 545 0
DWIDTH 24 0
BBX 18 28 3 -2
BITMAP
1FFC00
3FFF00
7FFF80
F003C0
E003C0
E003C0
E001C0
E001C0
E003C0
E003C0
E00780
E3FF80
E3FE00
E3FF80
E00380
E001C0
E001C0
E001C0
E001C0
E001C0
E001C0
E001C0
E007C0
E3FF80
E3FF80
E3FE00
E00000
E00000
ENDCHAR
STARTCHAR 00E0
ENCODING 224
SWIDTH 545 0
DWIDTH 24 0
BBX 23 35 1 1
BITMAP
010000
038000
03E000
01F000
007800
001C00
000800
000000
000000
000000
007C00
00FC00
00FC00
00FE00
01EE00
01CE00
03CF00
03C700
038780
078780
078380
0703C0
0F01C0
0E01E0
1E01E0
1E00E0
1C00F0
3FFFF0
3FFFF8
3FFFF8
780038
70003C
F0003C
F0001C
E0001E
ENDCHAR
STARTCHAR 00E1
ENCODING 225
SWIDTH 545 0
DWIDTH 24 0
BBX 23 35 1 1
BITMAP
000200
000700
001F00
003E00
007800
00F000
004000
000000
000000
000000
007C00
00FC00
00FC00
00FE00
01EE00
01CE00
03CF00
03C700
038780
078780
078380
0703C0
0F01C0
0E01E0
1E01E0
1E00E0
1C00F0
3FFFF0
3FFFF8
3FFFF8
780038
70003C
F0003C
F0001C
E0001E
ENDCHAR
STARTCHAR 00E2
ENCODING 226
SWIDTH 545 0
DWIDTH 24 0
BBX 23 35 1 0
BITMAP
003000
007800
00FC00
01FE00
078780
070380
020100
000000
000000
000000
007C00
00FC00
00FC00
00FE00
01EE00
01CE00
03CF00
03C700
038780
078780
078380
0703C0
0F01C0
0E01E0
1E01E0
1E00E0
1C00F0
3FFFF0
3FFFF8
3FFFF8
780038
70003C
F0003C
F0001C
E0001E
ENDCHAR
STARTCHAR 00E3
ENCODING 227
SWIDTH 545 0
DWIDTH 24 0
BBX 23 33 1 0
BITMAP
03E100
07FFC0
07FF80
061F00
000000
000000
000000
000000
007C00
00FC00
00FC00
00FE00
01EE00
01CE00
03CF00
03C700
038780
078780
078380
0703C0
0F01C0
0E01E0
1E01E0
1E00E0
1C00F0
3FFFF0
3FFFF8
3FFFF8
780038
70003C
F0003C
F0001C
E0001E
ENDCHAR
STARTCHAR 00E4
ENCODING 228
SWIDTH 545 0
DWIDTH 24 0
BBX 23 33 1 0
BITMAP
078780
078780
078780
000000
000000
000000
000000
000000
007C00
00FC00
00FC00
00FE00
01EE00
01CE00
03CF00
03C700
038780
078780
078380
0703C0
0F01C0
0E01E0
1E01E0
1E00E0
1C00F0
3FFFF0
3FFFF8
3FFFF8
780038
70003C
F0003C
F0001C
E0001E
ENDCHAR
STARTCHAR 00E5
ENCODING 229
SWIDTH 545 0
DWIDTH 24 0
BBX 23 35 1 0
BITMAP
007800
00FC00
01CE00
018600
01CE00
00FC00
007800
000000
000000
000000
007C00
00FC00
00FC00
00FE00
01EE00
01CE00
03CF00
03C700
038780
078780
078380
0703C0
0F01C0
0E01E0
1E01E0
1E00E0
1C00F0
3FFFF0
3FFFF8
3FFFF8
780038
70003C
F0003C
F0001C
E0001E
ENDCHAR
STARTCHAR 00E6
ENCODING 230
SWIDTH 840 0
DWIDTH 37 0
BBX 34 25 1 0
BITMAP
0003FFFFC0
0007FFFFC0
0007FFFFC0
000F380000
001E380000
001E380000
003C380000
003C380000
0078380000
0070380000
00F0380000
01E03FFF80
01E03FFF80
03C03FFF80
03C0380000
0780380000
0780380000
0FFFF80000
0FFFF80000
1FFFF80000
3E00380000
3C00380000
78003FFFC0
78003FFFC0
F0003FFFC0
ENDCHAR
STARTCHAR 00E7
ENCODING 231
SWIDTH 568 0
DWIDTH 25 0
BBX 21 34 2 -9
BITMAP
07FF80
3FFFE0
7FFFF0
7C0070
F80038
F00038
F00038
F00038
F00000
F00000
F00000
F00000
F00000
F00000
F00000
F00000
F00038
F00038
F00038
F80038
F80038
7C0078
7FFFF0
3FFFE0
0FFF80
000000
001C00
001C00
001C00
001C00
003C00
03F800
03F000
03E000
ENDCHAR
STARTCHAR 00E8
ENCODING 232
SWIDTH 500 0
DWIDTH 22 0
BBX 17 35 3 1
BITMAP
040000
0E0000
0F8000
07C000
01E000
007000
002000
000000
000000
000000
FFFF80
FFFF80
FFFF80
E00000
E00000
E00000
E00000
E00000
E00000
E00000
E00000
FFFF80
FFFF80
FFFF80
E00000
E00000
E00000
E00000
E00000
E00000
E00000
E00000
FFFF80
FFFF80
FFFF80
ENDCHAR
STARTCHAR 00E9
ENCODING 233
SWIDTH 500 0
DWIDTH 22 0
BBX 17 35 3 1
BITMAP
000800
001C00
007C00
00F800
01E000
03C000
010000
000000
000000
000000
FFFF80
FFFF80
FFFF80
E00000
E00000
E00000
E00000
E00000
E00000
E00000
E00000
FFFF80
FFFF80
FFFF80
E00000
E00000
E00000
E00000
E00000
E00000
E00000
E00000
FFFF80
FFFF80
FFFF80
ENDCHAR
STARTCHAR 00EA
ENCODING 234
SWIDTH 500 0
DWIDTH 22 0
BBX 17 35 3 0
BITMAP
00C000
01E000
03F000
07F800
1E1E00
1C0E00
080400
000000
000000
000000
FFFF80
FFFF80
FFFF80
E00000
E00000
E00000
E00000
E00000
E00000
E00000
E00000
FFFF80
FFFF80
FFFF80
E00000
E00000
E00000
E00000
E00000
E00000
E00000
E00000
FFFF80
FFFF80
FFFF80
ENDCHAR
STARTCHAR 00EB
ENCODING 235
SWIDTH 500 0
DWIDTH 22 0
BBX 17 33 3 0
BITMAP
1E1E00
1E1E00
1E1E00
000000
000000
000000
000000
000000
FFFF80
FFFF80
FFFF80
E00000
E00000
E00000
E00000
E00000
E00000
E00000
E00000
FFFF80
FFFF80
FFFF80
E00000
E00000
E00000
E00000
E00000
E00000
E00000
E00000
FFFF80
FFFF80
FFFF80
ENDCHAR
STARTCHAR 00EC
ENCODING 236
SWIDTH 227 0
DWIDTH 10 0
BBX 8 35 0 1
BITMAP
40
E0
F8
7C
1E
07
02
00
00
00
1C
1C
1C
1C
1C
1C
1C
1C
1C
1C
1C
1C
1C
1C
1C
1C
1C
1C
1C
1C
1C
1C
1C
1C
1C
ENDCHAR
STARTCHAR 00ED
ENCODING 237
SWIDTH 227 0
DWIDTH 10 0
BBX 8 35 2 1
BITMAP
02
07
1F
3E
78
F0
40
00
00
00
70
70
70
70
70
70
70
70
70
70
70
70
70
70
70
70
70
70
70
70
70
70
70
70
70
ENDCHAR
STARTCHAR 00EE
ENCODING 238
SWIDTH 227 0
DWIDTH 10 0
BBX 12 35 -1 0
BITMAP
0400
0F00
1F80
7BC0
F0E0
E070
8020
0000
0000
0000
0E00
0E00
0E00
0E00
0E00
0E00
0E00
0E00
0E00
0E00
0E00
0E00
0E00
0E00
0E00
0E00
0E00
0E00
0E00
0E00
0E00
0E00
0E00
0E00
0E00
ENDCHAR
STARTCHAR 00EF
ENCODING 239
SWIDTH 227 0
DWIDTH 10 0
BBX 10 33 0 0
BITMAP
F3C0
F3C0
F3C0
0000
0000
0000
0000
0000
1C00
1C00
1C00
1C00
1C00
1C00
1C00
1C00
1C00
1C00
1C00
1C00
1C00
1C00
1C00
1C00
1C00
1C00
1C00
1C00
1C00
1C00
1C00
1C00
1C00
ENDCHAR
STARTCHAR 00F0
ENCODING 240
SWIDTH 613 0
DWIDTH 27 0
BBX 24 25 1 0
BITMAP
1FFFE0
1FFFF8
1FFFFC
1C003E
1C000E
1C000E
1C0007
1C0007
1C0007
1C0007
1C0007
FFF007
FFF007
1C0007
1C0007
1C0007
1C0007
1C0007
1C0007
1C000E
1C000E
1C003E
1FFFFC
1FFFF8
1FFFE0
ENDCHAR
STARTCHAR 00F1
ENCODING 241
SWIDTH 636 0
DWIDTH 28 0
BBX 22 33 3 0
BITMAP
03E100
07FFC0
07FF80
061F00
000000
000000
000000
000000
F8001C
FC001C
FC001C
FE001C
EF001C
E7001C
E7801C
E3C01C
E1C01C
E1E01C
E0F01C
E0F01C
E0781C
E03C1C
E03C1C
E01E1C
E00E1C
E00F1C
E0079C
E0039C
E003DC
E001FC
E000FC
E000FC
E0007C
ENDCHAR
STARTCHAR 00F2
ENCODING 242
SWIDTH 590 0
DWIDTH 26 0
BBX 22 35 2 1
BITMAP
010000
038000
03E000
01F000
007800
001C00
000800
000000
000000
000000
07FF80
1FFFE0
3FFFF0
780078
700038
F0003C
F0001C
E0001C
E0001C
E0001C
E0001C
E0001C
E0001C
E0001C
E0001C
E0001C
E0001C
E0001C
F0001C
F0003C
700038
780078
3FFFF0
1FFFE0
07FF80
ENDCHAR
STARTCHAR 00F3
ENCODING 243
SWIDTH 590 0
DWIDTH 26 0
BBX 22 35 2 1
BITMAP
000200
000700
001F00
003E00
007800
00F000
004000
000000
000000
000000
07FF80
1FFFE0
3FFFF0
780078
700038
F0003C
F0001C
E0001C
E0001C
E0001C
E0001C
E0001C
E0001C
E0001C
E0001C
E0001C
E0001C
E0001C
F0001C
F0003C
700038
780078
3FFFF0
1FFFE0
07FF80
ENDCHAR
STARTCHAR 00F4
ENCODING 244
SWIDTH 590 0
DWIDTH 26 0
BBX 22 35 2 0
BITMAP
003000
007800
00FC00
01FE00
078780
070380
020100
000000
000000
000000
07FF80
1FFFE0
3FFFF0
780078
700038
F0003C
F0001C
E0001C
E0001C
E0001C
E0001C
E0001C
E0001C
E0001C
E0001C
E0001C
E0001C
E0001C
F0001C
F0003C
700038
780078
3FFFF0
1FFFE0
07FF80
ENDCHAR
STARTCHAR 00F5
ENCODING 245
SWIDTH 590 0
DWIDTH 26 0
BBX 22 33 2 0
BITMAP
03E100
07FFC0
07FF80
061F00
000000
000000
000000
000000
07FF80
1FFFE0
3FFFF0
780078
700038
F0003C
F0001C
E0001C
E0001C
E0001C
E0001C
E0001C
E0001C
E0001C
E0001C
E0001C
E0001C
E0001C
F0001C
F0003C
700038
780078
3FFFF0
1FFFE0
07FF80
ENDCHAR
STARTCHAR 00F6
ENCODING 246
SWIDTH 590 0
DWIDTH 26 0
BBX 22 33 2 0
BITMAP
078780
078780
078780
000000
000000
000000
000000
000000
07FF80
1FFFE0
3FFFF0
780078
700038
F0003C
F0001C
E0001C
E0001C
E0001C
E0001C
E0001C
E0001C
E0001C
E0001C
E0001C
E0001C
E0001C
F0001C
F0003C
700038
780078
3FFFF0
1FFFE0
07FF80
ENDCHAR
STARTCHAR 00F7
ENCODING 247
SWIDTH 522 0
DWIDTH 23 0
BBX 21 19 1 3
BITMAP
006000
00F000
00F000
006000
000000
000000
000000
000000
FFFFF8
FFFFF8
FFFFF8
000000
000000
000000
000000
006000
00F000
00F000
006000
ENDCHAR
STARTCHAR 00F8
ENCODING 248
SWIDTH 545 0
DWIDTH 24 0
BBX 22 27 1 -1
BITMAP
000004
07FF8C
1FFFEC
3FFFFC
780078
700078
E000FC
E001FC
E003BC
E0073C
E00E3C
E01C3C
E03C3C
E0783C
E0F03C
E0E03C
E1C03C
E3803C
E7003C
FE003C
FC003C
780038
780078
FFFFF0
FFFFE0
CFFF80
800000
ENDCHAR
STARTCHAR 00F9
ENCODING 249
SWIDTH 613 0
DWIDTH 27 0
BBX 21 35 3 1
BITMAP
020000
070000
07C000
03E000
00F000
003800
001000
000000
000000
000000
E00038
E00038
E00038
E00038
E00038
E00038
E00038
E00038
E00038
E00038
E00038
E00038
E00038
E00038
E00038
E00038
E00038
E00038
E00038
E00038
E00078
7800F0
7FFFF0
3FFFE0
0FFF80
ENDCHAR
STARTCHAR 00FA
ENCODING 250
SWIDTH 613 0
DWIDTH 27 0
BBX 21 35 3 1
BITMAP
000400
000E00
003E00
007C00
00F000
01E000
008000
000000
000000
000000
E00038
E00038
E00038
E00038
E00038
E00038
E00038
E00038
E00038
E00038
E00038
E00038
E00038
E00038
E00038
E00038
E00038
E00038
E00038
E00038
E00078
7800F0
7FFFF0
3FFFE0
0FFF80
ENDCHAR
STARTCHAR 00FB
ENCODING 251
SWIDTH 613 0
DWIDTH 27 0
BBX 21 35 3 0
BITMAP
006000
00F000
01F800
03FC00
0F0F00
0E0700
040200
000000
000000
000000
E00038
E00038
E00038
E00038
E00038
E00038
E00038
E00038
E00038
E00038
E00038
E00038
E00038
E00038
E00038
E00038
E00038
E00038
E00038
E00038
E00078
7800F0
7FFFF0
3FFFE0
0FFF80
ENDCHAR
STARTCHAR 00FC
ENCODING 252
SWIDTH 613 0
DWIDTH 27 0
BBX 21 33 3 0
BITMAP
0F0F00
0F0F00
0F0F00
000000
000000
000000
000000
000000
E00038
E00038
E00038
E00038
E00038
E00038
E00038
E00038
E00038
E00038
E00038
E00038
E00038
E00038
E00038
E00038
E00038
E00038
E00038
E00038
E00078
7800F0
7FFFF0
3FFFE0
0FFF80
ENDCHAR
STARTCHAR 00FD
ENCODING 253
SWIDTH 522 0
DWIDTH 23 0
BBX 22 35 1 1
BITMAP
000400
000E00
003E00
007C00
00F000
01E000
008000
000000
000000
000000
F0007C
F00078
7800F0
3C01F0
3C01E0
1E03C0
0F0380
0F0780
078F00
03CE00
03DE00
01FC00
00F800
00F800
007000
007000
007000
007000
007000
007000
007000
007000
007000
007000
007000
ENDCHAR
STARTCHAR 00FE
ENCODING 254
SWIDTH 545 0
DWIDTH 24 0
BBX 19 25 3 0
BITMAP
E00000
E00000
E00000
E00000
E00000
FFFF00
FFFF80
FFFFC0
E001C0
E000E0
E000E0
E000E0
E000E0
E000E0
E000E0
E000E0
E003C0
FFFFC0
FFFF80
FFFF00
E00000
E00000
E00000
E00000
E00000
ENDCHAR
STARTCHAR 00FF
ENCODING 255
SWIDTH 522 0
DWIDTH 23 0
BBX 22 33 1 0
BITMAP
0F0F00
0F0F00
0F0F00
000000
000000
000000
000000
000000
F0007C
F00078
7800F0
3C01F0
3C01E0
1E03C0
0F0380
0F0780
078F00
03CE00
03DE00
01FC00
00F800
00F800
007000
007000
007000
007000
007000
007000
007000
007000
007000
007000
007000
ENDCHAR
STARTCHAR 0106
ENCODING 262
SWIDTH 568 0
DWIDTH 25 0
BBX 21 35 2 1
BITMAP
000200
000700
001F00
003E00
007800
00F000
004000
000000
000000
000000
07FF80
1FFFE0
3FFFF0
7C00F0
F80078
F00078
F00038
F00038
F00000
F00000
F00000
F00000
F00000
F00000
F00000
F00000
F00038
F00038
F00038
F80038
780038
7C0078
3FFFF0
1FFFE0
07FF80
ENDCHAR
STARTCHAR 0107
ENCODING 263
SWIDTH 568 0
DWIDTH 25 0
BBX 21 35 2 1
BITMAP
000200
000700
001F00
003E00
007800
00F000
004000
000000
000000
000000
07FF80
1FFFE0
3FFFF0
7C00F0
F80078
F00078
F00038
F00038
F00000
F00000
F00000
F00000
F00000
F00000
F00000
F00000
F00038
F00038
F00038
F80038
780038
7C0078
3FFFF0
1FFFE0
07FF80
ENDCHAR
STARTCHAR 010C
ENCODING 268
SWIDTH 568 0
DWIDTH 25 0
BBX 21 35 2 0
BITMAP
040100
0E0780
078F00
03DE00
01F800
007000
002000
000000
000000
000000
07FF80
1FFFE0
3FFFF0
7C00F0
F80078
F00078
F00038
F00038
F00000
F00000
F00000
F00000
F00000
F00000
F00000
F00000
F00038
F00038
F00038
F80038
780038
7C0078
3FFFF0
1FFFE0
07FF80
ENDCHAR
STARTCHAR 010D
ENCODING 269
SWIDTH 568 0
DWIDTH 25 0
BBX 21 35 2 0
BITMAP
040100
0E0780
078F00
03DE00
01F800
007000
002000
000000
000000
000000
07FF80
1FFFE0
3FFFF0
7C00F0
F80078
F00078
F00038
F00038
F00000
F00000
F00000
F00000
F00000
F00000
F00000
F00000
F00038
F00038
F00038
F80038
780038
7C0078
3FFFF0
1FFFE0
07FF80
ENDCHAR
STARTCHAR 0111
ENCODING 273
SWIDTH 613 0
DWIDTH 27 0
BBX 24 25 1 0
BITMAP
3FFFE0
3FFFF8
3FFFFC
38003E
38000E
38000E
380007
380007
380007
380007
380007
FFF007
FFF007
380007
380007
380007
380007
380007
380007
38000E
38000E
38003E
3FFFFC
3FFFF8
3FFFE0
ENDCHAR
STARTCHAR 011E
ENCODING 286
SWIDTH 590 0
DWIDTH 26 0
BBX 21 34 2 0
BITMAP
060180
070380
078780
03FF00
01FE00
007800
000000
000000
000000
07FFC0
1FFFE0
3FFFF0
7800F8
700078
E00038
E00038
E00038
E00000
E00000
E00000
E00000
E03FF8
E03FF8
E03FF8
E00038
E00038
E00038
E00038
E00038
700078
7800F0
7FFFF0
1FFFE0
07FF80
ENDCHAR
STARTCHAR 011F
ENCODING 287
SWIDTH 590 0
DWIDTH 26 0
BBX 21 34 2 0
BITMAP
060180
070380
078780
03FF00
01FE00
007800
000000
000000
000000
07FFC0
1FFFE0
3FFFF0
7800F8
700078
E00038
E00038
E00038
E00000
E00000
E00000
E00000
E03FF8
E03FF8
E03FF8
E00038
E00038
E00038
E00038
E00038
700078
7800F0
7FFFF0
1FFFE0
07FF80
ENDCHAR
STARTCHAR 0130
ENCODING 304
SWIDTH 250 0
DWIDTH 11 0
BBX 4 32 3 0
BITMAP
70
70
70
00
00
00
00
E0
E0
E0
E0
E0
E0
E0
E0
E0
E0
E0
E0
E0
E0
E0
E0
E0
E0
E0
E0
E0
E0
E0
E0
E0
ENDCHAR
STARTCHAR 0131
ENCODING 305
SWIDTH 227 0
DWIDTH 10 0
BBX 3 25 3 0
BITMAP
E0
E0
E0
E0
E0
E0
E0
E0
E0
E0
E0
E0
E0
E0
E0
E0
E0
E0
E0
E0
E0
E0
E0
E0
E0
ENDCHAR
STARTCHAR 0141
ENCODING 321
SWIDTH 477 0
DWIDTH 21 0
BBX 19 25 1 0
BITMAP
1C0000
1C0000
1C0000
1C0000
1C0000
1C0000
1C0000
1C4000
1CC000
1FC000
1F8000
1F0000
1C0000
3C0000
7C0000
FC0000
DC0000
9C0000
1C0000
1C0000
1C0000
1C0000
1FFFE0
1FFFE0
1FFFE0
ENDCHAR
STARTCHAR 0142
ENCODING 322
SWIDTH 477 0
DWIDTH 21 0
BBX 20 25 1 0
BITMAP
1C0000
1C0000
1C0000
1C0000
1C0000
1C0000
1C0000
1C8000
1D8000
1F8000
1F0000
1E0000
1C0000
3C0000
7C0000
FC0000
DC0000
9C0000
1C0000
1C0000
1C0000
1C0000
1FFFF0
1FFFF0
1FFFF0
ENDCHAR
STARTCHAR 0152
ENCODING 338
SWIDTH 886 0
DWIDTH 39 0
BBX 34 25 2 0
BITMAP
0FFF3FFFC0
3FFFFFFFC0
7FFFFFFFC0
7800F80000
7000780000
E000380000
E000380000
E000380000
E000380000
E000380000
E000380000
E0003FFFC0
E0003FFFC0
E0003FFFC0
E000380000
E000380000
E000380000
E000380000
E000380000
E000380000
F000780000
7800F80000
7FFFFFFFC0
3FFFFFFFC0
0FFF3FFFC0
ENDCHAR
STARTCHAR 0153
ENCODING 339
SWIDTH 886 0
DWIDTH 39 0
BBX 34 25 3 0
BITMAP
07FE7FFFC0
1FFFFFFFC0
3FFFFFFFC0
7800F80000
7000780000
E000380000
E000380000
E000380000
E000380000
E000380000
E000380000
E0003FFF80
E0003FFF80
E0003FFF80
E000380000
E000380000
E000380000
E000380000
E000380000
E000380000
7000780000
7800F80000
7FFFFFFFC0
3FFFFFFFC0
0FFE7FFFC0
ENDCHAR
STARTCHAR 015E
ENCODING 350
SWIDTH 545 0
DWIDTH 24 0
BBX 20 34 2 -9
BITMAP
0FFF00
3FFFC0
7FFFC0
7801E0
E000E0
E000E0
E000E0
E00000
E00000
F00000
7C0000
7FFF80
3FFFC0
07FFE0
0000F0
000070
000070
E00070
E00070
E00070
F00070
F800F0
7FFFE0
3FFFC0
1FFF00
000000
001C00
001C00
001C00
003C00
003C00
03F800
03F000
03C000
ENDCHAR
STARTCHAR 015F
ENCODING 351
SWIDTH 545 0
DWIDTH 24 0
BBX 20 34 2 -9
BITMAP
0FFF00
3FFFC0
7FFFC0
7801E0
E000E0
E000E0
E000E0
E00000
E00000
F00000
7C0000
7FFF80
3FFFC0
07FFE0
0000F0
000070
000070
E00070
E00070
E00070
F00070
F800F0
7FFFE0
3FFFC0
1FFF00
000000
001C00
001C00
001C00
003C00
003C00
03F800
03F000
03C000
ENDCHAR
STARTCHAR 0160
ENCODING 352
SWIDTH 545 0
DWIDTH 24 0
BBX 20 35 2 0
BITMAP
080200
0E0700
0F1E00
03FC00
01F800
00F000
004000
000000
000000
000000
0FFF00
3FFFC0
7FFFC0
7801E0
E000E0
E000E0
E000E0
E00000
E00000
F00000
7C0000
7FFF80
3FFFC0
07FFE0
0000F0
000070
000070
E00070
E00070
E00070
F00070
F800F0
7FFFE0
3FFFC0
1FFF00
ENDCHAR
STARTCHAR 0161
ENCODING 353
SWIDTH 545 0
DWIDTH 24 0
BBX 20 35 2 0
BITMAP
080200
0E0700
0F1E00
03FC00
01F800
00F000
004000
000000
000000
000000
0FFF00
3FFFC0
7FFFC0
7801E0
E000E0
E000E0
E000E0
E00000
E00000
F00000
7C0000
7FFF80
3FFFC0
07FFE0
0000F0
000070
000070
E00070
E00070
E00070
F00070
F800F0
7FFFE0
3FFFC0
1FFF00
ENDCHAR
STARTCHAR 0178
ENCODING 376
SWIDTH 522 0
DWIDTH 23 0
BBX 22 33 1 0
BITMAP
0F0F00
0F0F00
0F0F00
000000
000000
000000
000000
000000
F0007C
F00078
7800F0
3C01F0
3C01E0
1E03C0
0F0380
0F0780
078F00
03CE00
03DE00
01FC00
00F800
00F800
007000
007000
007000
007000
007000
007000
007000
007000
007000
007000
007000
ENDCHAR
STARTCHAR 017D
ENCODING 381
SWIDTH 522 0
DWIDTH 23 0
BBX 21 35 1 0
BITMAP
040100
0F0380
078F00
03DE00
00FC00
007000
002000
000000
000000
000000
7FFFF0
7FFFF0
7FFFF0
0001E0
0001E0
0003C0
000780
000F00
001E00
003E00
003C00
007800
00F000
01F000
03E000
07C000
078000
0F0000
1F0000
3E0000
7C0000
780000
FFFFF8
FFFFF8
FFFFF8
ENDCHAR
STARTCHAR 017E
ENCODING 382
SWIDTH 522 0
DWIDTH 23 0
BBX 21 35 1 0
BITMAP
040100
0F0380
078F00
03DE00
00FC00
007000
002000
000000
000000
000000
7FFFF0
7FFFF0
7FFFF0
0001E0
0001E0
0003C0
000780
000F00
001E00
003E00
003C00
007800
00F000
01F000
03E000
07C000
078000
0F0000
1F0000
3E0000
7C0000
780000
FFFFF8
FFFFF8
FFFFF8
ENDCHAR
STARTCHAR 0192
ENCODING 402
SWIDTH 386 0
DWIDTH 17 0
BBX 18 34 -2 -6
BITMAP
0007C0
001FC0
001FC0
003C00
003800
003800
003800
007800
007000
03FF80
07FF80
07FF80
007000
00F000
00E000
00E000
00E000
00E000
01E000
01E000
01C000
01C000
01C000
01C000
03C000
03C000
038000
038000
038000
078000
078000
7F0000
FF0000
FC0000
ENDCHAR
STARTCHAR 02C6
ENCODING 710
SWIDTH 500 0
DWIDTH 22 0
BBX 12 7 5 28
BITMAP
0600
0F00
1F80
3FC0
F0F0
E070
4020
ENDCHAR
STARTCHAR 02C7
ENCODING 711
SWIDTH 500 0
DWIDTH 22 0
BBX 12 7 5 28
BITMAP
4020
E070
F0F0
3FC0
1F80
0F00
0600
ENDCHAR
STARTCHAR 02C9
ENCODING 713
SWIDTH 500 0
DWIDTH 22 0
BBX 12 3 5 29
BITMAP
FFF0
FFF0
FFF0
ENDCHAR
STARTCHAR 02D8
ENCODING 728
SWIDTH 500 0
DWIDTH 22 0
BBX 12 6 5 28
BITMAP
C030
E070
F0F0
7FE0
3FC0
0F00
ENDCHAR
STARTCHAR 02D9
ENCODING 729
SWIDTH 500 0
DWIDTH 22 0
BBX 4 3 9 30
BITMAP
F0
F0
F0
ENDCHAR
STARTCHAR 02DA
ENCODING 730
SWIDTH 500 0
DWIDTH 22 0
BBX 8 7 7 28
BITMAP
3C
7E
E7
C3
E7
7E
3C
ENDCHAR
STARTCHAR 02DB
ENCODING 731
SWIDTH 500 0
DWIDTH 22 0
BBX 7 9 14 -9
BITMAP
18
70
60
C0
C0
C0
E2
7E
3E
ENDCHAR
STARTCHAR 02DC
ENCODING 732
SWIDTH 500 0
DWIDTH 22 0
BBX 13 4 5 28
BITMAP
7C20
FFF8
FFF0
C3E0
ENDCHAR
STARTCHAR 02DD
ENCODING 733
SWIDTH 500 0
DWIDTH 22 0
BBX 13 7 6 28
BITMAP
0410
0E38
1E78
38F0
F1E0
E380
0100
ENDCHAR
STARTCHAR 03C0
ENCODING 960
SWIDTH 545 0
DWIDTH 24 0
BBX 23 21 1 0
BITMAP
FFFFFE
FFFFFE
FFFFFE
1C00E0
1C00E0
1C00E0
1C00E0
1C00E0
1C00E0
1C00E0
1C00E0
1C00E0
1C00E0
1C00E0
1C00E0
1C00E0
1C00E0
1C00E0
1C00E0
1C00E0
1C00E0
ENDCHAR
STARTCHAR 2013
ENCODING 8211
SWIDTH 545 0
DWIDTH 24 0
BBX 20 3 2 11
BITMAP
FFFFF0
FFFFF0
FFFFF0
ENDCHAR
STARTCHAR 2014
ENCODING 8212
SWIDTH 795 0
DWIDTH 35 0
BBX 35 3 0 11
BITMAP
FFFFFFFFE0
FFFFFFFFE0
FFFFFFFFE0
ENDCHAR
STARTCHAR 2018
ENCODING 8216
SWIDTH 227 0
DWIDTH 10 0
BBX 4 9 3 21
BITMAP
70
E0
C0
C0
F0
F0
F0
F0
F0
ENDCHAR
STARTCHAR 2019
ENCODING 8217
SWIDTH 227 0
DWIDTH 10 0
BBX 4 10 3 19
BITMAP
F0
F0
F0
F0
F0
30
30
70
F0
E0
ENDCHAR
STARTCHAR 201A
ENCODING 8218
SWIDTH 227 0
DWIDTH 10 0
BBX 4 10 3 -5
BITMAP
F0
F0
F0
F0
F0
30
30
30
F0
E0
ENDCHAR
STARTCHAR 201C
ENCODING 8220
SWIDTH 386 0
DWIDTH 17 0
BBX 11 9 3 21
BITMAP
70E0
E1C0
C180
C180
F1E0
F1E0
F1E0
F1E0
F1E0
ENDCHAR
STARTCHAR 201D
ENCODING 8221
SWIDTH 386 0
DWIDTH 17 0
BBX 11 10 3 19
BITMAP
F1E0
F1E0
F1E0
F1E0
F1E0
3060
3060
70E0
F1E0
E1C0
ENDCHAR
STARTCHAR 201E
ENCODING 8222
SWIDTH 386 0
DWIDTH 17 0
BBX 11 10 3 -5
BITMAP
F1E0
F1E0
F1E0
F1E0
F1E0
3060
3060
3060
F1E0
E1C0
ENDCHAR
STARTCHAR 2020
ENCODING 8224
SWIDTH 454 0
DWIDTH 20 0
BBX 17 33 1 -4
BITMAP
01C000
01C000
01C000
01C000
01C000
01C000
FFFF80
FFFF80
FFFF80
01C000
01C000
01C000
01C000
01C000
01C000
01C000
01C000
01C000
01C000
01C000
01C000
01C000
01C000
01C000
01C000
01C000
01C000
01C000
01C000
01C000
01C000
01C000
01C000
ENDCHAR
STARTCHAR 2021
ENCODING 8225
SWIDTH 454 0
DWIDTH 20 0
BBX 17 33 1 -4
BITMAP
01C000
01C000
01C000
01C000
01C000
01C000
FFFF80
FFFF80
FFFF80
01C000
01C000
01C000
01C000
01C000
01C000
01C000
01C000
01C000
01C000
01C000
01C000
01C000
01C000
01C000
FFFF80
FFFF80
FFFF80
01C000
01C000
01C000
01C000
01C000
01C000
ENDCHAR
STARTCHAR 2022
ENCODING 8226
SWIDTH 659 0
DWIDTH 29 0
BBX 12 12 9 6
BITMAP
0F00
3FC0
7FE0
7FE0
FFF0
FFF0
FFF0
FFF0
7FE0
7FE0
3FC0
0F00
ENDCHAR
STARTCHAR 2026
ENCODING 8230
SWIDTH 636 0
DWIDTH 28 0
BBX 22 5 3 0
BITMAP
F0783C
F0783C
F0783C
F0783C
F0783C
ENDCHAR
STARTCHAR 2030
ENCODING 8240
SWIDTH 1295 0
DWIDTH 57 0
BBX 54 26 1 0
BITMAP
000000E0000000
1FF801C0000000
7FFE01C0000000
FFFF0380000000
F00F0300000000
E0070700000000
E0070E00000000
E0070E00000000
E0071C00000000
E0071C00000000
E0073800000000
E00738FF803FE0
F00F73FFE0FFF8
FFFF77FFF1FFFC
7FFEE780F1E03C
1FF8E70071C01C
0001C70071C01C
0001870071C01C
0003870071C01C
0003070071C01C
0007070071C01C
000E070071C01C
000E0780F1E03C
001C07FFF1FFFC
001C03FFE0FFF8
003800FF803FE0
ENDCHAR
STARTCHAR 2039
ENCODING 8249
SWIDTH 295 0
DWIDTH 13 0
BBX 7 20 3 3
BITMAP
08
1E
1C
3C
38
78
70
70
E0
E0
E0
E0
70
70
38
38
1C
1C
0E
0C
ENDCHAR
STARTCHAR 203A
ENCODING 8250
SWIDTH 295 0
DWIDTH 13 0
BBX 7 20 3 3
BITMAP
60
F0
70
78
38
3C
1C
1C
0E
0E
0E
1E
1C
38
38
70
70
E0
E0
40
ENDCHAR
STARTCHAR 20A3
ENCODING 8355
SWIDTH 636 0
DWIDTH 28 0
BBX 25 26 3 0
BITMAP
FFFC0000
FFFC0000
FFFC0000
E0000000
E0000000
E0000000
E0000000
E0000000
E0000000
E0000000
E0073E00
E007FF00
FFC7FF00
FFC78780
FFC78380
E0070380
E0070380
E0070000
E0070000
E0070000
E0070000
E0070000
E0070000
E0070000
E0070000
E0070000
ENDCHAR
STARTCHAR 20AC
ENCODING 8364
SWIDTH 500 0
DWIDTH 22 0
BBX 17 28 2 0
BITMAP
03FF00
07FF00
0F8600
1E0000
1E0000
3C0000
3C0000
3C0000
3C0000
3C0000
FFFC00
FFFC00
3C0000
3C0000
3C0000
FFF800
FFF000
3C0000
3C0000
3C0000
3C0000
3C0000
3E0000
1E0000
1F8300
0FFF80
03FF80
007800
ENDCHAR
STARTCHAR 2122
ENCODING 8482
SWIDTH 863 0
DWIDTH 38 0
BBX 33 16 2 13
BITMAP
FFF8F00780
FFF8F00780
0700F00F80
0700F80F80
0700F81F80
0700E81B80
0700EC1B80
0700EC3B80
0700E63380
0700E63380
0700E67380
0700E36380
0700E3E380
0700E1C380
0700E1C380
0700E1C380
ENDCHAR
STARTCHAR 2126
ENCODING 8486
SWIDTH 659 0
DWIDTH 29 0
BBX 27 30 1 0
BITMAP
003F8000
01FFF000
03FFF800
0FC07E00
1F001F00
1E000F00
3C000780
780003C0
700003C0
700001C0
F00001E0
E00000E0
E00000E0
E00000E0
E00000E0
E00000E0
E00000E0
E00000E0
700001C0
700001C0
300001C0
38000380
1C000700
0E000700
07000E00
03801800
00E07000
FFF0FFE0
FFF0FFE0
FFF0FFE0
ENDCHAR
STARTCHAR 2202
ENCODING 8706
SWIDTH 500 0
DWIDTH 22 0
BBX 20 29 1 1
BITMAP
1F0000
1FC000
0FF000
01FC00
007E00
001F00
000F00
000780
0003C0
0001C0
03F9E0
0FFDE0
1FFEE0
3E07F0
7C01F0
7800F0
F000F0
E00070
E00070
E00070
E00070
E00070
7000E0
7000E0
7C01C0
3E07C0
1FFF80
0FFE00
01F800
ENDCHAR
STARTCHAR 2206
ENCODING 8710
SWIDTH 613 0
DWIDTH 27 0
BBX 27 29 0 0
BITMAP
000F0000
001F0000
001F0000
001F8000
003B8000
003BC000
0079C000
0071C000
0070E000
00E0E000
00E0F000
01C07000
01C07000
01C03800
03803800
03801C00
07001C00
07001C00
0F000E00
0E000E00
0E000700
1C000700
1C000700
3C000380
38000380
380001C0
7FFFFFC0
7FFFFFC0
FFFFFFE0
ENDCHAR
STARTCHAR 220F
ENCODING 8719
SWIDTH 659 0
DWIDTH 29 0
BBX 27 44 1 -11
BITMAP
FFFFFFE0
FFFFFFE0
FFFFFFE0
1C000700
1C000700
1C000700
1C000700
1C000700
1C000700
1C000700
1C000700
1C000700
1C000700
1C000700
1C000700
1C000700
1C000700
1C000700
1C000700
1C000700
1C000700
1C000700
1C000700
1C000700
1C000700
1C000700
1C000700
1C000700
1C000700
1C000700
1C000700
1C000700
1C000700
1C000700
1C000700
1C000700
1C000700
1C000700
1C000700
1C000700
1C000700
FFC03FE0
FFC03FE0
FFC03FE0
ENDCHAR
STARTCHAR 2211
ENCODING 8721
SWIDTH 659 0
DWIDTH 29 0
BBX 25 44 2 -11
BITMAP
FFFFFF00
FFFFFF00
FFFFFF00
F0000700
70000700
78000700
3C000700
3C000700
1E000700
0E000700
0F000000
07800000
07800000
03C00000
01C00000
01E00000
00E00000
00F00000
00780000
00780000
003C0000
003C0000
00380000
00780000
00700000
00F00000
00E00000
01E00000
03C00000
03C00000
07800000
07800000
0F000000
0F000000
1E000780
1E000780
3C000780
38000780
78000780
70000780
F0000780
FFFFFF80
FFFFFF80
FFFFFF80
ENDCHAR
STARTCHAR 2212
ENCODING 8722
SWIDTH 522 0
DWIDTH 23 0
BBX 21 3 1 11
BITMAP
FFFFF8
FFFFF8
FFFFF8
ENDCHAR
STARTCHAR 2215
ENCODING 8725
SWIDTH 159 0
DWIDTH 7 0
BBX 17 26 -5 0
BITMAP
000380
000700
000700
000E00
000C00
001C00
003800
003800
007000
007000
00E000
00E000
01C000
01C000
038000
038000
070000
060000
0E0000
1C0000
1C0000
380000
380000
700000
700000
E00000
ENDCHAR
STARTCHAR 2219
ENCODING 8729
SWIDTH 204 0
DWIDTH 9 0
BBX 4 5 3 10
BITMAP
F0
F0
F0
F0
F0
ENDCHAR
STARTCHAR 221A
ENCODING 8730
SWIDTH 659 0
DWIDTH 29 0
BBX 29 36 0 0
BITMAP
00003FF8
00003FF8
00007FF8
00007000
00007000
00007000
0000F000
0000E000
0000E000
0001E000
0001C000
0001C000
0003C000
00038000
00038000
00038000
00078000
00070000
00070000
000F0000
FC0E0000
FC0E0000
FC0E0000
0E1E0000
0E1C0000
0E1C0000
0E3C0000
07380000
07380000
07380000
03F00000
03F00000
03F00000
03F00000
01E00000
01E00000
ENDCHAR
STARTCHAR 221E
ENCODING 8734
SWIDTH 659 0
DWIDTH 29 0
BBX 28 13 1 6
BITMAP
0F801F00
3FC07FC0
70F0E0E0
60318060
C01B0030
C00F0030
C00E0030
C00F0030
C01F0030
60398060
70F0E0E0
3FE07FC0
0F801F00
ENDCHAR
STARTCHAR 222B
ENCODING 8747
SWIDTH 500 0
DWIDTH 22 0
BBX 14 44 4 -11
BITMAP
00FC
01FC
03FC
07C0
0780
0780
0780
0780
0780
0780
0780
0780
0780
0780
0780
0780
0780
0780
0780
0780
0780
0780
0780
0780
0780
0780
0780
0780
0780
0780
0780
0780
0780
0780
0780
0780
0780
0780
0780
0780
0F80
7F00
FE00
F800
ENDCHAR
STARTCHAR 2248
ENCODING 8776
SWIDTH 500 0
DWIDTH 22 0
BBX 20 14 1 6
BITMAP
1F0030
3FC030
7FF0F0
F1FFE0
C03FC0
400F80
000000
1E0000
3F8030
7FE070
F1F8F0
E07FE0
C01FC0
000780
ENDCHAR
STARTCHAR 2260
ENCODING 8800
SWIDTH 522 0
DWIDTH 23 0
BBX 21 18 1 3
BITMAP
000100
0003C0
000780
000700
FFFFF8
FFFFF8
FFFFF8
003800
007800
00F000
00E000
FFFFF8
FFFFF8
FFFFF8
070000
0F0000
1E0000
040000
ENDCHAR
STARTCHAR 2264
ENCODING 8804
SWIDTH 500 0
DWIDTH 22 0
BBX 20 23 1 1
BITMAP
000010
000070
0003F0
000FF0
007F80
03FE00
0FF000
7F8000
FE0000
F00000
FE0000
7F8000
0FF000
01FE00
007FC0
000FF0
0003F0
000070
000010
000000
FFFFF0
FFFFF0
FFFFF0
ENDCHAR
STARTCHAR 2265
ENCODING 8805
SWIDTH 500 0
DWIDTH 22 0
BBX 20 23 1 1
BITMAP
800000
E00000
FC0000
FF0000
1FE000
07FC00
00FF00
001FE0
0007F0
0000F0
0007F0
001FE0
00FF00
07FC00
3FE000
FF0000
FC0000
E00000
800000
000000
FFFFF0
FFFFF0
FFFFF0
ENDCHAR
STARTCHAR 25CA
ENCODING 9674
SWIDTH 659 0
DWIDTH 29 0
BBX 23 31 3 -1
BITMAP
001000
003800
007C00
007E00
00EE00
01C700
018380
038180
0701C0
0E00E0
0E0070
1C0030
380038
30001C
70000E
E0000E
70001C
38001C
180038
1C0070
0E0060
0600E0
0701C0
038380
01C380
00C700
00EE00
007C00
003C00
003800
001000
ENDCHAR
STARTCHAR F000
ENCODING 61440
SWIDTH 659 0
DWIDTH 29 0
BBX 27 31 1 0
BITMAP
00007000
0000F000
0001F000
0003E000
0003E000
0003C000
00030000
07E07E00
0FFFFF80
3FFFFFC0
3FFFFFC0
7FFFFF80
7FFFFF00
FFFFFE00
FFFFFE00
FFFFFE00
FFFFFE00
FFFFFE00
FFFFFE00
FFFFFF00
7FFFFF00
7FFFFF80
7FFFFFE0
7FFFFFE0
3FFFFFC0
3FFFFFC0
1FFFFF80
0FFFFF80
07FFFF00
07FFFE00
01E07800
ENDCHAR
STARTCHAR F001
ENCODING 61441
SWIDTH 681 0
DWIDTH 30 0
BBX 24 25 3 0
BITMAP
FFFF07
FFFF07
FFFF07
E00007
E00007
E00007
E00007
E00007
E00007
E00007
E00007
FFFF07
FFFF07
FFFF07
E00007
E00007
E00007
E00007
E00007
E00007
E00007
E00007
E00007
E00007
E00007
ENDCHAR
STARTCHAR F002
ENCODING 61442
SWIDTH 931 0
DWIDTH 41 0
BBX 37 25 3 0
BITMAP
FFFF070000
FFFF070000
FFFF070000
E000070000
E000070000
E000070000
E000070000
E000070000
E000070000
E000070000
E000070000
FFFF070000
FFFF070000
FFFF070000
E000070000
E000070000
E000070000
E000070000
E000070000
E000070000
E000070000
E000070000
E00007FFF8
E00007FFF8
E00007FFF8
ENDCHAR
ENDFONT
